<?xml version="1.0" encoding="UTF-8" standalone="no"?>
<!-- Created with Inkscape (http://www.inkscape.org/) -->

<svg
   xmlns:dc="http://purl.org/dc/elements/1.1/"
   xmlns:cc="http://creativecommons.org/ns#"
   xmlns:rdf="http://www.w3.org/1999/02/22-rdf-syntax-ns#"
   xmlns:svg="http://www.w3.org/2000/svg"
   xmlns="http://www.w3.org/2000/svg"
   xmlns:sodipodi="http://sodipodi.sourceforge.net/DTD/sodipodi-0.dtd"
   xmlns:inkscape="http://www.inkscape.org/namespaces/inkscape"
   id="svg3417"
   version="1.1"
   inkscape:version="0.91 r13725"
   width="778"
   height="778"
   viewBox="0 0 778 778"
   sodipodi:docname="mitsfs-seal.svg">
  <metadata
     id="metadata3423">
    <rdf:RDF>
      <cc:Work
         rdf:about="">
        <dc:format>image/svg+xml</dc:format>
        <dc:type
           rdf:resource="http://purl.org/dc/dcmitype/StillImage" />
        <dc:title></dc:title>
      </cc:Work>
    </rdf:RDF>
  </metadata>
  <defs
     id="defs3421" />
  <sodipodi:namedview
     pagecolor="#ffffff"
     bordercolor="#666666"
     borderopacity="1"
     objecttolerance="10"
     gridtolerance="10"
     guidetolerance="10"
     inkscape:pageopacity="0"
     inkscape:pageshadow="2"
     inkscape:window-width="1184"
     inkscape:window-height="745"
     id="namedview3419"
     showgrid="false"
     inkscape:zoom="0.70158585"
     inkscape:cx="429.12119"
     inkscape:cy="387.75723"
     inkscape:window-x="0"
     inkscape:window-y="0"
     inkscape:window-maximized="0"
     inkscape:current-layer="svg3417" />
  <path
     style="fill:#000000"
     d="M 344.5,776.47419 C 284.23955,768.63495 227.10122,747.43378 178,714.6944 153.49591,698.35573 135.27982,683.17858 114,661.37135 91.18511,637.99101 75.23625,617.41222 59.06965,590.49483 30.582182,543.06319 14.212581,494.96427 5.809451,434 3.696088,418.66766 4.028674,359.98612 6.325208,343 16.606244,266.95715 45.700143,199.60196 92.93066,142.5 102.9242,130.41775 126.09914,106.86423 138.91761,95.761807 189.03754,52.351605 251.53942,21.848448 316.5,9.0952475 346.27699,3.2493648 355.21105,2.4951328 394,2.5525347 c 33.42094,0.049458 36.52489,0.2105066 53,2.7499061 47.39288,7.3049262 83.88958,19.0816882 125.21094,40.4030902 53.70112,27.709233 101.26174,69.266889 137.98645,120.570209 32.27967,45.09375 55.44967,100.7502 65.28488,156.82028 2.08017,11.85892 2.48558,17.13852 2.33275,30.37871 -0.10174,8.8139 -0.33034,13.55027 -0.508,10.52527 -0.63547,-10.81994 -3.48786,-32.72184 -5.92569,-45.5 C 751.93402,216.56496 692.29427,126.79724 606,69.573654 587.51296,57.314499 576.71084,51.125386 558.83595,42.550845 488.87066,8.9886541 410.41431,-2.4501014 332.50314,9.5520427 173.68664,34.017579 44.947159,157.91439 14.077249,316 4.580653,364.63232 4.728495,419.11002 14.487034,467 46.251565,622.88428 170.58676,743.60416 327,770.42598 c 25.9371,4.4477 34.10089,5.07703 65,5.01065 30.7545,-0.0661 41.57883,-0.88558 65.84579,-4.9852 137.48013,-23.22564 253.32657,-121.4651 298.93058,-253.49747 11.08779,-32.10129 18.94872,-70.5682 20.52833,-100.45396 0.17442,-3.3 0.40222,1.37501 0.50622,10.38891 0.21135,18.3192 -1.32762,29.83208 -7.33088,54.84156 -17.059,71.06747 -53.60781,135.10638 -106.59506,186.77026 -61.97765,60.42975 -138.88695,97.39713 -224.84697,108.07542 -15.00528,1.86401 -79.96406,1.79395 -94.53801,-0.10196 z M 370,758.41137 C 318.8901,754.96168 272.27234,742.30471 227,719.58611 115.56483,663.66563 39.728814,554.46757 25.887845,430 24.254259,415.30966 24.269732,364.08401 25.912011,350 31.397904,302.95353 46.877811,254.09656 69.06395,213.80583 119.04001,123.0477 204.18245,57.39919 304,32.659931 330.75269,26.029416 349.92785,23.422874 379.31198,22.422526 427.1583,20.793655 468.53962,26.925676 513,42.232862 645.96082,88.009705 741.89184,207.2046 758.65263,347.45778 760.74141,364.9366 761.00735,412.9128 759.11017,430 741.99299,584.16836 630.35166,711.54747 479.98906,748.46809 464.1537,752.35636 446.15463,755.48801 431,756.99167 c -11.10614,1.10196 -51.7074,2.0469 -61,1.4197 z m 43,-4.41606 C 504.34584,748.53222 587.34705,711.17864 651.0956,646.84359 731.94886,565.24646 769.31616,451.73782 752.9322,337.5 742.08524,261.86909 705.95358,189.51049 651.56064,134.48957 528.51774,10.026103 335.0324,-9.4315569 189.5,88.022902 104.61323,144.86656 46.655474,236.70515 32.059287,337.5 25.380406,383.62141 27.66235,432.28719 38.600459,477 72.07009,613.8172 182.62924,719.91047 320.5,747.51263 c 32.68085,6.54281 59.76117,8.44068 92.5,6.48268 z M 367,746.0046 C 296.77466,741.44627 225.82895,713.53487 169,668.10761 157.26659,658.7283 133.56592,635.70849 122.55822,623 72.06285,564.7026 41.718065,490.59354 36.915286,413.83989 33.959665,366.60584 39.713716,321.96043 54.487231,277.5 89.61722,171.7774 173.7156,87.676445 279.5,52.480336 310.5992,42.13315 338.89566,36.700816 371.66943,34.785711 453.21767,30.020516 532.4861,52.767021 599,100.01945 c 31.50581,22.38218 61.7711,52.77094 84.63528,84.98055 20.38891,28.72261 38.64428,65.34775 48.84695,98 19.44245,62.22291 21.5305,130.76696 5.89455,193.5 C 716.90862,562.63248 663.77961,637.77588 589.07056,687.67233 543.76449,717.93121 487.43683,738.53488 434,744.39441 c -16.99708,1.86379 -50.6377,2.67226 -67,1.61019 z m 65,-5.60452 c 41.76184,-4.72983 77.84573,-15.32818 115.5,-33.92396 25.43017,-12.55884 46.23309,-25.7568 67.5,-42.82389 10.95937,-8.7951 43.47251,-41.61394 52.30032,-52.79207 46.77791,-59.23204 72.6353,-126.99134 76.76255,-201.15629 C 748.88141,323.11666 722.07255,239.17438 667.7221,170.67029 657.71976,158.06319 634.01264,133.7429 619.86173,121.57203 554.85583,65.661966 466.93757,35.145472 380.5,38.489391 319.04503,40.866834 263.94408,57.117218 211.22066,88.413284 165.55613,115.51927 122.79431,157.52917 93.88156,203.68909 29.190125,306.97059 22.621961,436.81928 76.56955,545.93735 c 18.75233,37.92974 39.12646,65.82727 70.56103,96.61657 29.34097,28.73868 55.75087,47.32985 92.36942,65.02319 41.61127,20.10572 82.14372,30.79221 132,34.80215 9.554,0.76843 47.07906,-0.45916 60.5,-1.97918 z m -56.26216,-21.23772 c -1.64288,-0.64988 -1.62596,-0.81368 0.25,-2.41992 C 377.79672,715.19363 378,713.80628 378,703.00979 378,691 378,691 374.40638,691 c -2.77662,0 -3.71496,0.46399 -4.12732,2.04089 -0.29354,1.12249 -1.03891,1.8705 -1.65638,1.66223 -0.61748,-0.20826 -1.64851,0.33529 -2.29119,1.2079 -1.01097,1.37267 -1.2623,1.21284 -1.86426,-1.18556 C 363.50335,690.88507 360.37047,689 354.95181,689 c -3.4825,0 -5.11632,0.54778 -6.71088,2.25 -4.7018,5.01923 -5.5289,12.54301 -1.96091,17.83755 2.98151,4.42426 6.05886,5.87971 12.46998,5.89771 5.10312,0.0143 6.87484,1.17725 3.66821,2.40775 -0.86998,0.33385 -3.92463,0.60699 -6.78811,0.60699 -6.54191,0 -13.28526,-3.253 -16.37203,-7.89788 -4.44836,-6.69378 -2.20256,-17.26119 4.63981,-21.83219 3.81957,-2.55163 10.95518,-3.00461 20.0777,-1.27456 2.88671,0.54745 14.4228,1.03989 25.63577,1.09431 18.7743,0.0911 23.97502,0.70386 19.7465,2.32649 -1.423,0.54606 -1.56697,2.17214 -1.13056,12.76853 0.42756,10.38143 0.77301,12.34235 2.38153,13.51853 1.6232,1.18691 1.67622,1.50548 0.38631,2.32094 -1.76973,1.1188 -12.00939,1.31209 -11.96333,0.22583 0.0175,-0.4125 0.67816,-1.6039 1.46815,-2.64756 2.08627,-2.75619 0.97852,-23.53388 -1.35333,-25.38402 -1.39677,-1.10823 -1.76429,-0.83897 -2.71699,1.99059 -1.08608,3.22567 -1.11878,3.24033 -2.30087,1.03159 -0.8755,-1.6359 -2.10274,-2.2406 -4.54731,-2.2406 -4.20416,0 -4.54965,1.118 -4.5678,14.78138 -0.0112,8.46684 0.26588,10.38866 1.5702,10.88917 1.27522,0.48935 1.32393,0.77253 0.25,1.4533 -1.58302,1.00348 -8.59509,1.02781 -11.09601,0.0385 z m 46.09405,-2.8709 c -6.70931,-4.16252 -9.12818,-16.54812 -4.56869,-23.39358 2.94483,-4.42127 8.66257,-7.15896 15.14744,-7.2527 9.82152,-0.14197 15.59269,5.90825 15.58562,16.33922 -0.005,7.02876 -2.39056,11.05988 -8.21427,13.87909 -5.42744,2.62738 -14.07277,2.8335 -17.9501,0.42797 z m 16.96921,-3.66399 c 1.66949,-1.66949 2.8084,-11.0629 1.81919,-15.00421 -0.34084,-1.35801 -1.78484,-3.8538 -3.20889,-5.54619 -3.40691,-4.04888 -9.24978,-4.3296 -12.95685,-0.62252 -4.4959,4.49589 -2.84404,17.99471 2.68982,21.98088 2.78837,2.00854 9.29095,1.55782 11.65673,-0.80796 z m -114.54479,0.31619 c -2.33402,-0.46047 -5.03402,-1.30397 -6,-1.87445 -1.60814,-0.94974 -1.56783,-1.09026 0.47774,-1.66569 2.46555,-0.69356 3.23915,-2.81392 5.89957,-16.16996 1.58496,-7.95697 1.57584,-8.3463 -0.24351,-10.39968 -1.89011,-2.13325 -1.89011,-2.13325 2.67941,-1.52743 2.51323,0.3332 5.88823,1.1219 7.5,1.75266 2.73486,1.0703 2.79308,1.19985 0.87214,1.94075 -1.6263,0.62725 -2.51838,2.79659 -4.25,10.33496 C 328.84349,705.55721 328.3828,712 330,712 c 0.55,0 1,0.45 1,1 0,1.13022 -0.76143,1.12386 -6.74369,-0.0563 z M 454.75,712.92786 c 1.81553,-1.92861 1.55293,-5.54044 -1.1631,-15.99745 -1.74973,-6.73669 -3.04876,-9.77019 -4.72545,-11.03492 -2.31236,-1.74421 -2.31236,-1.74421 0.6631,-2.4128 1.6365,-0.36772 3.69293,-0.85986 4.56986,-1.09364 0.88428,-0.23575 5.79846,2.63339 11.03362,6.44196 10.3234,7.51026 13.87197,9.66777 13.87197,8.43407 0,-3.4846 -4.46794,-16.04299 -6.17701,-17.36221 -2.01456,-1.55501 -1.95466,-1.62617 2.27168,-2.69893 4.9582,-1.25853 5.43829,-1.08802 4.11213,1.46041 -0.66524,1.27837 -0.24866,4.87151 1.37219,11.83565 3.82935,16.45313 3.9445,17.5 1.92491,17.5 -1.76802,0 -7.38489,-3.5121 -19.7539,-12.35165 -7.74747,-5.53675 -7.92105,-5.32825 -4.83365,5.80589 1.21546,4.38334 2.72818,7.52333 4.13603,8.58527 2.61206,1.97028 1.81563,2.65228 -4.14776,3.55181 -3.63868,0.54886 -4.18725,0.43349 -3.15462,-0.66346 z M 301,706.86942 c -1.925,-0.52262 -4.79868,-1.46197 -6.38595,-2.08745 -2.70598,-1.06632 -2.75655,-1.18511 -0.81079,-1.90489 2.73486,-1.0117 7.4464,-15.27175 7.59138,-22.97626 C 301.5,674.30165 301.5,674.30165 305,675.22513 c 16.82354,4.43896 17.97051,5.08218 16.39301,9.19308 -0.77948,2.03129 -2.39301,2.05204 -2.39301,0.0308 0,-1.70887 -6.50289,-4.8537 -8.47314,-4.09765 -1.41758,0.54398 -3.70223,8.55591 -2.83835,9.95369 0.31467,0.50915 2.56663,0.70091 5.00436,0.42614 3.61101,-0.40701 4.32801,-0.22795 3.86969,0.96642 -0.30941,0.8063 -0.56945,1.9917 -0.57787,2.63422 -0.008,0.64251 -0.3975,1.77118 -0.86461,2.50815 -0.66413,1.04781 -1.41394,0.77529 -3.43923,-1.25 -3.87035,-3.87035 -5.38602,-3.32184 -7.13982,2.58385 -1.36509,4.59677 -1.36941,5.35836 -0.0387,6.82874 2.79834,3.09213 2.19514,3.41367 -3.50229,1.86689 z m 202.26506,-7.67091 C 501.96721,698.35994 500.29734,692 501.375,692 c 0.34375,0 1.525,0.9 2.625,2 2.25535,2.25535 5.09476,2.54569 8.31574,0.8503 2.77355,-1.45989 3.64975,-2.78893 3.66895,-5.56512 C 516.00617,686.17779 513.16246,685 505.63832,685 c -5.82359,0 -6.70688,-0.2717 -8.56574,-2.63486 -4.61635,-5.86874 -1.55737,-12.48697 7.34253,-15.88587 5.5532,-2.12079 7.90085,-1.31835 8.40131,2.87159 0.33781,2.8282 -1.21862,3.64938 -2.17805,1.14914 -0.82722,-2.1557 -6.93734,-1.93211 -8.98338,0.32874 -2.09684,2.31698 -2.13537,5.77294 -0.0732,6.56427 0.86998,0.33385 4.44489,0.60699 7.94423,0.60699 5.25215,0 6.84336,0.41366 9.11822,2.37041 3.27293,2.81526 3.71509,7.90604 1.04114,11.98702 -2.80605,4.28256 -13.49067,8.73403 -16.42032,6.84108 z m -235.69547,-3.7454 c -4.36172,-1.87766 -8.29652,-3.78004 -8.744,-4.22752 -0.44749,-0.44749 0.71018,-3.7188 2.5726,-7.2696 5.28831,-10.08248 8.16291,-18.80007 6.6788,-20.25436 -0.95899,-0.93972 -1.7086,-0.60224 -3.43919,1.54837 C 261.81828,668.7538 261,668.71757 261,665.08889 261,660.76733 256.10981,657 250.5002,657 c -3.49565,0 -4.93336,0.587 -7.34541,2.99906 -3.687,3.687 -5.55886,9.03352 -4.72287,13.48973 0.78733,4.19686 6.24883,9.17309 11.05774,10.07525 4.01437,0.7531 5.24222,1.94113 2.92513,2.83028 -3.4009,1.30505 -11.09352,-1.88965 -16.18411,-6.72117 -6.61513,-6.27847 -6.30285,-15.83627 0.74777,-22.8869 3.48813,-3.48812 4.23112,-3.78625 9.43602,-3.78625 6.64727,0 10.90213,1.58306 15.79027,5.8749 1.95761,1.71881 4.28428,3.1251 5.17037,3.1251 1.8409,0 19.64919,6.87107 21.04776,8.12098 C 289.52851,671.10908 287.53069,676 286.02144,676 285.45965,676 285,675.10915 285,674.02032 c 0,-1.29952 -1.36057,-2.67379 -3.96016,-4 C 278.86175,668.90915 276.82076,668 276.5043,668 c -0.92847,0 -4.56019,9.10054 -3.99602,10.0134 0.95765,1.5495 6.51881,2.20901 8.03268,0.95261 1.83261,-1.52094 1.9659,0.28156 0.36121,4.88477 -1.1343,3.25387 -2.90217,4.27254 -2.90217,1.67227 0,-1.94152 -4.57605,-4.89971 -6.46068,-4.17651 -1.70218,0.65319 -4.74449,7.35527 -4.32341,9.52431 0.15625,0.80488 2.22263,2.10939 4.59195,2.89891 3.92437,1.30769 4.48131,1.27852 6.25613,-0.32767 1.07155,-0.96974 2.13248,-1.57842 2.35763,-1.35263 0.83805,0.84047 -2.37421,6.90802 -3.62335,6.84405 -0.71405,-0.0366 -4.86695,-1.60275 -9.22868,-3.4804 z M 527.89788,683.74193 C 523.72836,680.97106 520,673.88836 520,668.73845 c 0,-12.25829 16.22849,-20.87665 26.5618,-14.106 3.19504,2.09347 7.42155,10.57134 7.41198,14.86755 -0.0115,5.17113 -3.91345,10.60271 -9.84149,13.69955 -6.57049,3.43247 -11.63107,3.60154 -16.23441,0.54238 z m 17.17904,-4.66501 c 3.83485,-3.83485 3.80835,-8.00058 -0.0942,-14.80532 -4.71359,-8.21895 -10.45437,-10.26994 -15.90599,-5.68271 -2.41647,2.03333 -3.07202,3.37456 -3.05477,6.25 0.0482,8.03216 7.03366,17.16111 13.13169,17.16111 1.98267,0 3.99156,-0.99137 5.92327,-2.92308 z m -327.92301,-9.39147 c -0.63044,-0.75963 -1.89523,-7.74962 -2.81064,-15.5333 C 213.42786,646.36847 212.29205,640 211.81925,640 c -0.47279,0 -3.09226,3.42005 -5.82104,7.60012 -4.02281,6.16233 -4.76906,7.95954 -3.94463,9.5 1.4022,2.62003 0.10707,2.38018 -4.57145,-0.8466 -3.6255,-2.50052 -3.77863,-2.77568 -1.7098,-3.07248 2.35278,-0.33754 7.45377,-6.48012 13.13223,-15.81377 4.14437,-6.81208 2.73438,-11.00442 -2.22556,-6.61727 -1.91984,1.69814 -1.95994,1.67361 -1.35301,-0.82736 0.50406,-2.07711 -0.0621,-3.24169 -2.91707,-6 -3.54253,-3.42264 -3.54253,-3.42264 -6.97572,0.31267 -1.88826,2.05443 -3.4332,4.14017 -3.4332,4.63499 0,1.5743 5.13034,4.32888 7.10208,3.81326 2.8378,-0.7421 2.31501,1.54266 -1.10208,4.81644 -3,2.87418 -3,2.87418 -3,0.34208 C 195,635.37474 192.32395,632 190.36743,632 189.04115,632 183,638.321 183,639.70871 c 0,0.61243 1.43191,2.31837 3.18202,3.79099 2.39952,2.01907 3.87498,2.5389 6,2.1139 3.42186,-0.68438 3.58098,0.32097 0.50775,3.20812 -2.31024,2.17036 -2.31024,2.17036 -8.75,-3.15388 -10.31732,-8.53009 -10.18861,-7.4475 -1.95556,-16.448 3.94661,-4.31451 8.02959,-9.19327 9.0733,-10.8417 1.72811,-2.72936 1.76058,-3.19285 0.36337,-5.18764 C 190.57702,611.98573 189.21889,611 188.4028,611 c -2.36168,0 -7.04046,3.91929 -13.36519,11.19567 -4.53016,5.21179 -5.74086,7.26627 -5.31898,9.02601 0.43356,1.80844 -0.51229,1.25488 -4.58621,-2.68409 -5.5771,-5.39236 -6.23864,-6.63963 -3.08405,-5.81469 2.80948,0.7347 19.36979,-16.01585 18.63017,-18.84417 -0.85771,-3.27987 1.65077,-2.04962 7.32146,3.59072 5.43275,5.40367 17.1311,15.27884 26.13156,22.05898 4.63156,3.489 4.63156,3.489 5.89156,15.18624 1.96111,18.20593 1.74134,17.92966 7.32308,9.20535 3.38186,-5.28588 4.58335,-8.06459 4.18071,-9.66882 -0.69752,-2.77915 -0.15358,-2.80162 4.10506,-0.16964 3.96726,2.45191 4.13295,3.10859 1.11803,4.43131 -1.2375,0.54292 -5.54588,5.71213 -9.57418,11.48713 -4.02829,5.775 -7.67325,10.62749 -8.09991,10.7833 -0.42666,0.15582 -1.29156,-0.33821 -1.922,-1.09785 z M 371.5,665.93436 C 337.46691,664.14039 300.38782,653.61424 266.36762,636.08897 169.94858,586.41938 111.82017,486.48078 116.54326,378.5 118.86076,325.51646 134.9249,277.39354 164.7795,234 c 9.30002,-13.51754 16.99199,-22.78327 30.19024,-36.3671 40.93921,-42.13521 91.80855,-69.07036 150.47904,-79.67815 25.28702,-4.57197 68.83713,-4.57307 94.09772,-0.002 47.82076,8.65276 93.95795,29.98343 129.4535,59.85042 9.63785,8.10957 27.60515,26.08762 38.51018,38.53322 C 613.5,223.1724 613.5,223.1724 621,220.46362 c 10.66252,-3.85099 13.99968,-5.71116 21.19136,-11.81231 3.49618,-2.96601 7.77072,-5.70333 9.49898,-6.08292 7.26556,-1.59578 15.82386,3.63909 20.30289,12.41871 2.80689,5.50196 2.57598,7.53487 -1.02529,9.02656 -3.28765,1.36179 -5.05371,0.67249 -3.15127,-1.22995 4.31372,-4.31372 -2.44216,-15.23317 -9.03257,-14.59923 -2.44672,0.23535 -3.2841,0.7995 -3.2841,2.21252 0,1.31912 -1.21795,2.31121 -4,3.25822 -9.18132,3.12532 -9.87327,8.8973 -2.23475,18.64127 1.63672,2.08787 2.7682,4.00377 2.51441,4.25757 -1.25738,1.25737 -7.48581,-4.71666 -10.205,-9.78818 -1.69106,-3.15398 -3.38546,-5.74148 -3.76533,-5.75 -1.34652,-0.0302 -15.80904,12.16536 -15.79082,13.31567 0.0102,0.64285 2.96964,6.11883 6.57657,12.16883 18.1703,30.47751 30.94382,65.07278 36.92272,100 3.90042,22.78525 3.89071,65.09032 -0.0202,88.06745 -10.35496,60.83645 -38.48465,113.70127 -83.26229,156.47687 -20.70688,19.78105 -41.90972,34.49099 -68.47248,47.50427 -44.55425,21.82744 -88.22544,30.2342 -142.26281,27.38577 z m 61.5,-5.38858 c 57.39355,-9.14407 108.14499,-34.37809 148.87931,-74.02397 20.33893,-19.79546 33.2634,-36.16629 46.61473,-59.04469 17.08572,-29.27752 28.69983,-62.1773 34.05787,-96.47712 2.50696,-16.04847 3.07154,-54.04653 1.06058,-71.37998 -3.94603,-34.01261 -12.89999,-63.71794 -28.2949,-93.87002 -3.01878,-5.9125 -5.83858,-10.75 -6.26623,-10.75 -0.42765,0 -1.01563,2.96614 -1.30664,6.59142 -0.51005,6.35418 -0.33014,7.02902 4.99862,18.75 10.49258,23.07914 18.36916,50.68497 21.87247,76.65858 2.28359,16.93065 2.28359,50.06935 0,67 -6.49774,48.17442 -26.14486,94.30416 -56.22012,132 -8.60641,10.78713 -29.34801,31.50538 -40.39569,40.35023 -38.79684,31.06098 -87.30759,51.29197 -136,56.71762 -15.17467,1.69087 -49.01931,1.39936 -63.49082,-0.54685 C 330.18377,648.71162 302.59149,640.37821 277.5,628.05463 248.57974,613.85056 228.44566,599.4886 205.96155,577.02512 183.50814,554.59231 168.24822,533.13072 154.39373,504.5 124.08589,441.86796 120.05538,370.69871 143.00935,303.47878 148.23856,288.16521 161.76914,260.6451 171.02363,246.5 213.24055,181.97321 281.04262,139.21328 358.46594,128.28797 c 15.01389,-2.11863 53.05423,-2.11863 68.06812,0 59.6616,8.41893 114.79361,36.20268 155.48093,78.35455 5.23325,5.42161 11.99738,12.7324 15.0314,16.2462 5.51642,6.38872 5.51642,6.38872 8.73501,4.72432 1.77023,-0.91542 3.2186,-2.169 3.2186,-2.78573 0,-3.34084 -30.65459,-35.12714 -45.185,-46.85315 -40.63928,-32.79578 -91.83504,-53.9096 -143.15064,-59.03724 -15.46612,-1.54543 -55.66819,-0.67763 -68.98744,1.48916 -31.82889,5.17796 -58.98021,14.16723 -86.63166,28.68205 -55.14437,28.94641 -100.18991,78.20477 -124.43383,136.07129 -8.54163,20.38756 -14.1835,40.53777 -18.28912,65.32058 -1.48111,8.94043 -1.81557,16.52339 -1.7863,40.5 0.0316,25.93127 0.3074,31.07266 2.27936,42.5 9.90367,57.39072 34.38496,106.04177 73.6583,146.37931 46.49221,47.75202 101.25809,74.40323 169.52633,82.49812 9.10289,1.07937 56.93647,-0.2283 67,-1.83165 z m 2.87162,-12.51924 c 14.6916,-2.59669 33.1382,-7.53322 46.76833,-12.51578 23.09213,-8.44144 52.43256,-24.93642 72.29176,-40.64191 8.05324,-6.36885 8.05324,-6.36885 -76.86017,-6.62445 -46.70237,-0.14058 -123.45061,-0.14058 -170.55165,0 -85.63824,0.2556 -85.63824,0.2556 -78.02072,6.2556 37.26717,29.3538 81.62252,48.26456 129.00083,54.99907 15.81649,2.24821 61.20802,1.38432 77.37162,-1.47253 z m 135.16615,-66.9859 c 3.46223,-2.95936 3.46223,-2.95936 -178.47486,-3 C 210.62582,578 210.62582,578 213.5,581 c 2.87418,3 2.87418,3 178.47487,3 175.60068,0 175.60068,0 179.0629,-2.95936 z M 225.75,557.54683 C 239,544.52779 239,544.52779 239,518.19815 239,501.96081 238.60321,491.1271 237.96482,489.93426 237.24714,488.59327 235.86692,488 233.46482,488 230.44461,488 230,487.68227 230,485.52393 230,482.74479 238.54303,452.53308 245.98339,429 252.0215,409.9021 256,396.19374 256,394.48665 c 0,-0.70928 -3.15811,-5.04644 -7.01802,-9.63813 C 236.89409,370.46897 232.0375,357.61864 232.03214,340 c -0.007,-24.65215 12.13866,-44.06009 34.64709,-55.3615 2.84858,-1.43026 5.44684,-3.03347 5.77391,-3.56268 0.32708,-0.52922 -1.01858,-3.48416 -2.99035,-6.56653 -5.89254,-9.21153 -6.76741,-12.59385 -6.87032,-26.56115 -0.0924,-12.54684 -0.091,-12.55485 3.61016,-20 9.3244,-18.75676 24.0778,-28.1506 44.29737,-28.20518 27.48181,-0.0742 48.47626,21.04187 48.47626,48.75704 0,8.68167 -1.62952,14.91976 -6.32808,24.22504 -2.0065,3.97377 -3.63927,7.57377 -3.62838,8 0.0109,0.42623 3.1672,2.25354 7.01401,4.0607 20.50937,9.63492 33.77003,36.0154 31.48093,62.62754 -1.33823,15.55776 -5.29372,23.97561 -17.40242,37.03487 -5.78609,6.2403 -7.08389,8.26795 -7.54873,11.79387 -2.07108,15.70957 -8.50846,82.58297 -8.97654,93.25087 -0.47697,10.87059 -0.89816,13.43663 -2.57857,15.70951 -2.65717,3.59402 -2.53313,6.02064 0.49152,9.61523 2.5,2.97108 2.5,2.97108 2.5,31.07673 C 354,574 354,574 403.33333,574 c 27.13334,0 49.54483,-0.2115 49.80333,-0.46999 0.25849,-0.2585 -0.79364,-5.49861 -2.33807,-11.64469 C 446.54421,544.95497 445,530.49073 445,507.57123 c 0,-15.06305 -0.32367,-20.58432 -1.25,-21.32264 -0.6875,-0.54797 -3.38578,-1.30538 -5.99618,-1.68315 -3.77706,-0.54659 -4.84549,-1.13388 -5.23251,-2.87614 C 432.12797,479.91859 427,402.35232 427,398.17331 c 0,-0.65253 -3.0375,-3.13938 -6.75,-5.52634 -16.77994,-10.78866 -25.25,-27.929 -25.25,-51.09683 0,-11.53612 1.64474,-19.17609 6.09887,-28.32977 4.1527,-8.53421 10.9464,-14.99647 22.44032,-21.34551 C 435.56541,285.23179 439,280.57629 439,270.91816 c 0,-4.12368 -0.19209,-4.25518 -7.99733,-5.47479 -11.51198,-1.79882 -17.41491,-16.60028 -10.63349,-26.66322 3.00527,-4.45953 7.28837,-6.65674 15.71901,-8.06377 7.28828,-1.21638 7.28828,-1.21638 9.87808,-13.84647 1.42439,-6.94654 3.19479,-13.35904 3.93421,-14.25 2.23924,-2.69812 6.73837,-2.02741 9.25764,1.38009 2.64071,3.57175 3.48705,3.68197 6.50456,0.84717 2.19851,-2.06539 7.03711,-2.76878 9.32398,-1.35542 1.70419,1.05326 1.14845,13.89596 -0.8839,20.4259 -2.24488,7.21282 -3.15941,6.64868 12.14478,7.49158 14.21754,0.78306 18.08579,3.56517 18.08579,13.00761 0,5.50768 -2.18724,8.95782 -7.34795,11.59062 -2.19196,1.11825 -3.98538,2.252 -3.98538,2.51945 0,0.26744 -0.68382,5.03906 -1.5196,10.60359 -1.06623,7.09883 -1.20728,10.49366 -0.47278,11.37868 0.57576,0.69374 4.07208,2.00991 7.7696,2.92483 3.69753,0.91491 9.19778,2.59253 12.22278,3.72804 3.84921,1.4449 8.8856,2.22289 16.77993,2.59206 11.27994,0.5275 11.27994,0.5275 25,-7.76186 7.54604,-4.55915 18.73902,-11.55442 24.87329,-15.54505 10.69965,-6.96062 11.27916,-7.51957 14.25,-13.74441 C 595.56425,245.03178 595.56878,245 593,245 c -3.63827,0 -2.1203,-5.00476 3.2352,-10.66647 3.60242,-3.80839 4.04238,-2.96682 -9.45052,-18.07724 -41.50492,-46.48048 -98.78151,-76.60368 -161.0859,-84.71913 -15.57909,-2.02925 -50.68955,-2.0493 -66.03483,-0.0377 -47.64061,6.24514 -89.50179,23.65577 -127.43166,53.00055 -13.31785,10.30347 -32.57187,29.0752 -42.56828,41.502 -30.94265,38.46561 -51.41323,87.35843 -56.60949,135.20859 -1.57988,14.54844 -1.31628,48.67739 0.48264,62.48819 3.69561,28.37214 11.92181,55.36848 24.92608,81.80122 11.93272,24.25467 23.14699,40.74827 42.34665,62.28214 7.61062,8.53588 4.56302,9.7866 24.94011,-10.23531 z M 272.98469,569.25 c -0.0242,-7.50821 -1.48527,-8.58091 -3.92746,-2.88351 C 266.25748,572.89805 266.39357,574 270,574 c 2.91443,0 2.99956,-0.13549 2.98469,-4.75 z m 310.00706,-0.5 c 29.2151,-29.66391 54.80856,-78.0404 64.41152,-121.75 4.78889,-21.79745 5.8405,-34.04848 5.32201,-62 -0.60306,-32.51085 -3.62309,-50.6462 -13.10154,-78.67495 -3.87258,-11.45161 -13.16886,-33.07054 -15.61506,-36.31354 -1.60893,-2.13301 -1.60893,-2.13301 -7.36951,0.0223 -6.22324,2.32842 -7.69066,4.32743 -6.94885,9.46619 0.31442,2.17812 -0.97794,5.87659 -4.71733,13.5 -6.6147,13.48527 -6.60343,13.47217 -9.79526,11.3808 -2.46519,-1.61525 -2.60696,-1.58025 -4.81498,1.18887 -3.64093,4.56617 -7.58653,12.40479 -7.00578,13.91821 0.31235,0.81395 2.32122,1.52057 4.83856,1.70196 4.4848,0.32315 5.2156,1.62951 3.35607,5.99917 -0.57521,1.35165 -0.003,1.82328 2.86482,2.36129 4.15852,0.78014 4.30933,1.25734 1.5186,4.80519 -2.51865,3.20193 -2.00595,4.22102 2.55393,5.07646 1.93108,0.36227 3.51105,1.04607 3.51105,1.51956 0,0.47348 -2.26871,2.49079 -5.04158,4.4829 -2.77287,1.9921 -4.77131,4.05932 -4.44098,4.5938 0.33032,0.53448 2.26154,0.97868 4.29158,0.9871 2.03004,0.008 4.31427,0.41006 5.07608,0.89252 1.76919,1.12045 0.1388,2.00543 -9.3851,5.09425 -3.85,1.24865 -8.35,2.97808 -10,3.84318 -3,1.57291 -3,1.57291 1.5,2.2897 2.475,0.39424 7.73594,0.75015 11.69098,0.79092 7.76945,0.0801 9.00402,0.74139 6.85945,3.67427 -1.20166,1.64337 -3.13349,1.96185 -14.55862,2.40016 -12.57855,0.48257 -13.26077,0.61809 -15.11508,3.00253 -4.42899,5.69521 -6.68997,7.35887 -16.53822,12.16906 -10.14048,4.95293 -11.05575,5.11525 -14.59144,2.58773 -1.45977,-1.04353 -2.52242,-0.84487 -6.35422,1.18789 -7.31674,3.88152 -7.78186,5.16502 -5.86832,16.19388 0.89174,5.1396 4.51096,23.52284 8.04271,40.85166 3.53176,17.32882 6.42394,32.77695 6.42707,34.32918 0.003,1.55223 -1.17899,7.85223 -2.62692,14 -3.2421,13.76555 -3.65994,29.66442 -1.03919,39.54111 4.03653,15.21227 16.62166,32.45489 27.6718,37.91253 6.93051,3.42297 9.06471,2.99221 14.99175,-3.02588 z M 255.5,569.6091 c 4.58609,-0.17319 5.02538,-0.40472 5.30658,-2.79697 0.25364,-2.15774 -0.71443,-3.39381 -5.60555,-7.15744 -3.25167,-2.5021 -7.52798,-5.31983 -9.50291,-6.26161 -3.53447,-1.68547 -3.64261,-1.67274 -6.89445,0.81141 -1.81702,1.38805 -6.20173,5.31794 -9.74381,8.73309 -8.22576,7.93098 -7.67529,8.39393 8.94014,7.51875 6.875,-0.36213 14.75,-0.74338 17.5,-0.84723 z m 92.16795,0.0562 c 1.08691,-1.09035 1.08655,-46.2443 -3.8e-4,-47.33217 -1.10806,-1.10901 -43.19853,-1.72228 -57.41757,-0.83659 C 279,522.1973 279,522.1973 279,546.05296 c 0,23.85566 0,23.85566 6.75,24.24603 12.33559,0.71339 61.07234,0.21462 61.91795,-0.63368 z m -55.66268,-18.15896 c -1.43568,-1.72989 -0.50321,-14.08057 1.13973,-15.09596 1.73308,-1.07111 2.19181,0.41859 2.64714,8.59649 0.36901,6.62748 0.18942,7.99312 -1.0511,7.99312 -0.82288,0 -2.05398,-0.67214 -2.73577,-1.49365 z m 9.55263,0.58733 c -0.37657,-0.60929 0.0189,-1.32963 0.87872,-1.60074 0.85986,-0.27112 2.31363,-0.73269 3.2306,-1.02572 2.14908,-0.68677 0.62409,-2.19194 -2.66722,-2.63254 -2.16275,-0.28953 -2.5415,-0.90839 -2.80764,-4.58752 -0.27852,-3.85038 -0.0456,-4.35245 2.46097,-5.30546 1.52273,-0.57894 3.79867,-0.79409 5.05764,-0.47811 2.08123,0.52236 2.28764,1.14016 2.27372,6.80546 -0.008,3.42702 -0.36829,6.78667 -0.79971,7.46589 -1.09309,1.72094 -6.77738,2.73358 -7.62708,1.35874 z M 306.8,542.8 c 1.86216,-1.86216 1.42211,-2.97079 -1.03978,-2.61955 -1.23189,0.17575 -2.38988,1.10705 -2.57333,2.06955 -0.38232,2.00595 1.82166,2.34145 3.61311,0.55 z m 12.54059,8.3944 c -0.2597,-0.99307 -1.79257,-2.30399 -3.40638,-2.91313 C 314.32039,547.67212 313,546.68594 313,546.08974 313,544.23014 320.14179,537 321.97868,537 c 1.36867,0 1.88393,1.17397 2.38447,5.43272 0.35118,2.988 0.19927,6.588 -0.33757,8 -1.1241,2.9566 -3.9892,3.4224 -4.68499,0.76168 z M 320,544.41667 c 0,-1.76593 -2.15276,-1.45839 -2.77083,0.39583 -0.21771,0.65313 0.31666,1.1875 1.1875,1.1875 C 319.2875,546 320,545.2875 320,544.41667 Z m 8.54234,7.65184 c -0.33749,-0.54607 0.75453,-1.34738 2.42671,-1.78068 4.01419,-1.04018 4.27026,-2.63531 0.53095,-3.3074 -2.74676,-0.49369 -2.98952,-0.86282 -2.8759,-4.37299 0.0682,-2.10858 0.74325,-4.23683 1.5,-4.72945 2.51368,-1.63633 6.00781,-2.14608 7.11578,-1.03811 1.32223,1.32223 1.46745,12.88188 0.17679,14.07216 -1.48804,1.37231 -8.20032,2.24703 -8.87433,1.15647 z m 6.28098,-10.40138 C 335.0147,540.68037 334.50456,540 333.57332,540 332.64569,540 332,540.855 332,542.08333 c 0,2.43705 2.33677,2.09257 2.82332,-0.4162 z m 132.31672,27.76045 c 2.7651,-1.42989 3.39693,-1.42989 6.97058,0 C 479.55405,571.60561 484,571.51342 484,569.22251 484,565.75975 475.82874,556 472.92958,556 c -2.68833,0 -12.92399,8.12956 -13.59331,10.79633 -1.02789,4.09543 2.60416,5.32008 7.80377,2.63125 z m 84.29502,0.6775 c 0.63215,-1.02284 -6.29084,-11.7596 -9.39232,-14.5664 -2.5283,-2.28808 -4.33159,-1.50299 -12.04381,5.24347 -5.20537,4.55353 -5.20537,4.55353 -2.85215,6.36345 1.54977,1.19197 4.23107,1.85155 7.85322,1.93184 3.025,0.0671 6.625,0.48221 8,0.92256 3.48973,1.11761 7.77628,1.17101 8.43506,0.10508 z m -51.50911,-1.51987 c 2.0459,-1.13337 3.09181,-1.11703 6.67622,0.1043 4.56116,1.55415 10.53516,1.44847 11.07294,-0.19588 0.3641,-1.11329 -9.6365,-14.64743 -11.21105,-15.17228 -0.54443,-0.18147 -4.58407,3.02967 -8.97697,7.13588 -6.53276,6.10642 -7.71396,7.65214 -6.48709,8.48899 2.06469,1.40833 6.02089,1.24833 8.92595,-0.36101 z M 461.86602,554.5909 c 2.54869,-1.87501 5.70115,-4.54971 7.00548,-5.94378 2.37149,-2.53468 2.37149,-2.53468 0.5,-9.8409 -2.4791,-9.67827 -2.4991,-34.04011 -0.0362,-44.11827 C 471.82368,484.50545 472.13733,485 463.19115,485 452.098,485 452.03434,485.077 450.74679,500.05356 449.02277,520.10721 452.89943,558 456.67506,558 c 0.30635,0 2.6423,-1.5341 5.19098,-3.4091 z m 69.21408,-3.39034 c 5.23077,-4.8097 5.23077,-4.8097 3.57534,-13.02544 -2.12061,-10.52434 -2.17153,-31.13886 -0.10047,-40.67512 3.13642,-14.44174 4.01424,-12.75926 -6.44608,-12.35495 -6.19982,0.23964 -9.44767,0.78338 -9.99752,1.67373 -1.49351,2.41842 -2.07335,23.48381 -1.106,40.18122 0.8301,14.32854 2.79008,27.24198 4.57246,30.12593 0.78673,1.27295 3.54295,-0.44576 9.50227,-5.92537 z M 267.41314,546.5 c 3.37118,-17.46425 4.92483,-54.76203 2.38686,-57.3 -1.384,-1.384 -22.36327,-1.71565 -23.19697,-0.36671 -0.28325,0.45831 -0.82844,13.20867 -1.21153,28.33415 -0.69653,27.50086 -0.69653,27.50086 8.61065,33.72633 11.01103,7.36516 11.14992,7.31966 13.41099,-4.39377 z m 229.13286,5.16567 c 5.86977,-5.33432 5.86977,-5.33432 4.16189,-15.88624 -2.27665,-14.06589 -2.18077,-28.2691 0.27639,-40.94467 1.54843,-7.9878 1.71317,-10.40836 0.75,-11.02015 -1.64194,-1.04292 -15.88042,-1.00843 -17.53729,0.0425 -3.24377,2.05744 -3.90944,33.33145 -1.10987,52.14291 1.3575,9.12163 4.97569,21 6.39666,21 0.65584,0 3.83384,-2.40045 7.06222,-5.33433 z m 14.5132,-24.36238 C 510.41704,516.96148 509.80352,503.55 509.69582,497.5 c -0.19582,-11 -0.19582,-11 -2.54963,-4 -4.00891,11.92209 -3.05517,34.65004 2.02366,48.22443 1.11402,2.97746 2.25755,5.1815 2.5412,4.89786 0.28364,-0.28364 -0.01,-8.9772 -0.65185,-19.319 z M 475.43356,503 c -0.65427,-3.47383 -0.66694,-3.4813 -1.69398,-1 -1.65493,3.99825 -1.47722,23.78707 0.26042,29 1.48897,4.46692 1.50218,4.39341 1.79638,-10 0.16301,-7.975 -2.6e-4,-16.075 -0.36282,-18 z m -183.61136,8.13142 c 0.17721,-1.85272 -0.18459,-4.5921 -0.80401,-6.0875 -1.26528,-3.05466 -11.66151,-13.73394 -12.52719,-12.86826 -0.30716,0.30716 -0.83885,5.16063 -1.18153,10.78549 -0.73271,12.02686 -0.62811,12.17752 8.19053,11.79744 6,-0.25859 6,-0.25859 6.3222,-3.62717 z m 51.69871,-0.25516 c 0.50528,-2.99076 0.32337,-4.36874 -0.66211,-5.01549 -0.74734,-0.49046 -10.93837,-0.77228 -22.64674,-0.62626 -23.01245,0.287 -23.52601,0.41579 -22.97111,5.76074 0.3554,3.42337 2.50408,3.74553 25.92115,3.88644 C 342.8242,515 342.8242,515 343.52091,510.87626 Z M 348,490.60699 c 0,-5.81897 -0.33678,-7.52225 -1.58179,-8 -2.51487,-0.96505 -63.24082,-0.70303 -63.84557,0.27547 -0.64096,1.03709 2.16142,4.94162 7.79992,10.86754 4.04386,4.25 4.04386,4.25 30.83565,4.25 C 348,498 348,498 348,490.60699 Z m -85,-9.45589 c 4.61614,-0.54647 5.50005,-0.9725 5.50033,-2.6511 3.1e-4,-1.90433 0.7591,-2.0132 15.86255,-2.27596 15.86223,-0.27597 15.86223,-0.27597 11.36911,-5.07948 C 291.30052,466.40697 289,460.3732 289,453.48804 c 0,-1.82474 -1.43312,-3.38673 -5.87464,-6.40291 -3.23106,-2.19417 -6.16006,-4.73318 -6.5089,-5.64225 -0.34885,-0.90907 -0.87918,-10.49311 -1.17852,-21.29786 -0.29934,-10.80476 -0.77606,-21.16265 -1.05939,-23.01753 -0.50746,-3.32219 -0.57738,-3.36416 -4.68663,-2.81299 -2.4691,0.33117 -4.84371,1.38968 -5.81871,2.59375 -2.64238,3.26321 -24.2318,70.73098 -25.5273,79.77384 -0.59914,4.18208 -0.59914,4.18208 3.27747,4.58189 6.20021,0.63946 15.43337,0.5907 21.37662,-0.11288 z m 207.29929,-3.07701 c 8.34694,-0.87552 11.82118,-2.88933 13.92951,-8.07409 1.13972,-2.80277 1.21322,-71.4345 0.0812,-75.83344 C 483.62382,391.5 483.62382,391.5 482.91159,394 c -0.39173,1.375 -0.75709,18.15195 -0.81191,37.28212 -0.11183,39.02207 -0.35647,40.68734 -6.25291,42.56417 -1.84072,0.5859 -10.88427,1.37471 -20.09677,1.7529 -9.2125,0.37819 -16.75,1.04843 -16.75,1.48943 0,1.61163 19.48175,2.22502 31.29929,0.98547 z M 535,477.13592 C 535,476.25133 527.9299,475 522.93186,475 c -3.51693,0 -5.92738,-2.35949 -5.94717,-5.82143 C 516.97627,467.70536 516.53316,465.825 516,465 c -0.69397,-1.07384 -0.97372,-0.008 -0.98469,3.75 -0.0228,7.81917 1.83104,9.25 11.98469,9.25 4.4,0 8,-0.38883 8,-0.86408 z M 309.39301,474.41821 C 309.72686,473.54823 310,469.72323 310,465.91821 310,459.66667 309.80727,459 308,459 c -1.84314,0 -2,0.66667 -2,8.5 0,6.59874 0.31159,8.5 1.39301,8.5 0.76616,0 1.66616,-0.7118 2,-1.58179 z M 346.75,473.2269 c 0.94546,-1.21712 1.22591,-9.41962 1.1511,-33.66803 -0.0544,-17.63238 -0.39189,-34.48733 -0.75,-37.45545 -0.73842,-6.12032 -3.05126,-8.64182 -5.5828,-6.08647 -1.14647,1.15725 -1.65588,6.35052 -2.31886,23.63971 -0.63534,16.5686 -1.20436,22.5841 -2.25618,23.85146 -0.77361,0.93215 -3.78857,3.21856 -6.69991,5.08093 -4.29156,2.74527 -5.29441,3.90891 -5.29893,6.14853 -0.0107,5.28604 -2.13235,10.35394 -6.66383,15.91737 -4.5597,5.59808 -4.5597,5.59808 11.30485,4.88959 12.81274,-0.5722 16.10502,-1.01803 17.11456,-2.31764 z M 504,475 c 0,-1.20603 -7.69342,-1.20603 -10.5,0 -1.41371,0.60749 -0.16785,0.88003 4.25,0.92971 C 501.29686,475.9696 504,475.5675 504,475 Z m -42.66312,-5.93798 c 2.96571,-1.12756 3.8708,-3.68091 6.75696,-19.06202 1.68234,-8.96569 2.26562,-16.7339 2.64676,-35.25 0.48237,-23.43407 0.46161,-23.75 -1.56076,-23.75 -3.40829,0 -6.9862,1.77483 -8.62742,4.27965 -0.8537,1.30291 -3.12495,6.8355 -5.04721,12.29464 -4.06404,11.54164 -6.58604,16.64094 -14.22705,28.7661 -5.57103,8.84038 -5.57103,8.84038 -4.94187,19.12319 0.70761,11.56509 1.1293,13.23593 3.49885,13.86349 3.23159,0.85586 19.06693,0.66066 21.50174,-0.26505 z m 12.44061,-1.61872 C 476,465.88659 476,465.88659 475.88169,429.6933 475.81661,409.78698 475.41985,392.15 475,390.5 c -0.50001,-1.96502 -0.80419,0.83107 -0.88169,8.10478 -0.16907,15.86937 -1.81022,34.46647 -4.6541,52.73936 -1.35623,8.71428 -2.21395,16.25178 -1.90603,16.75 0.85536,1.384 3.74606,1.08149 6.21931,-0.65084 z m 59.54809,0.3067 c 1.60127,-1.172 1.55218,-2.09235 -0.78678,-14.75 -1.37203,-7.425 -3.62955,-18.63066 -5.0167,-24.90148 C 526.13494,421.82771 525,416.54021 525,416.34852 525,416.15684 524.49149,416 523.86997,416 c -1.72019,0 -0.69636,49.29933 1.06798,51.42523 1.56667,1.88772 6.01679,2.06003 8.38763,0.32477 z M 300.24656,460.51721 C 300.868,452.77538 302.06964,451 306.68819,451 c 5.91391,0 7.07295,1.256 7.84936,8.50604 0.38413,3.58697 1.10476,6.77289 1.60139,7.07983 1.13038,0.69861 3.86106,-5.67125 3.86106,-9.0067 0,-4.16109 -1.92479,-7.0483 -6.56888,-9.85344 C 309,445.04924 309,445.04924 309,426.52462 309,411.41909 308.74467,408 307.61663,408 c -2.16937,0 -2.58609,3.32163 -2.63458,21 -0.0453,16.5 -0.0453,16.5 -4.52692,19.21978 -5.01834,3.04548 -6.88272,6.61258 -6.08167,11.63599 0.61352,3.8474 3.32151,8.45078 4.5314,7.70303 0.44935,-0.27771 1.05311,-3.44643 1.3417,-7.04159 z m 200.41993,4.56524 c -0.91518,-4.57588 -6.76752,-13.52991 -7.78944,-11.91775 -1.28387,2.02541 -1.04121,12.27114 0.32295,13.6353 0.66,0.66 2.74125,1.2 4.625,1.2 3.25071,0 3.39531,-0.14847 2.84149,-2.91755 z m 7.32752,-41.89147 c -0.003,-19.08004 -0.295,-38.40348 -0.64822,-42.94098 -0.69271,-8.89856 -2.10081,-10.58185 -4.13835,-4.94712 -0.71966,1.99017 -2.99462,4.57184 -5.724,6.49568 -2.49131,1.75604 -4.96926,4.34904 -5.50655,5.76222 C 491.4396,388.97396 491,400.13651 491,412.36645 c 0,22.23625 0,22.23625 5.45389,31.46577 7.11236,12.03612 9.49595,15.31681 10.62258,14.62052 0.53618,-0.33138 0.92102,-15.1209 0.91754,-35.26176 z m 8.86765,-16.7901 c 0.15112,-20.8636 -0.66614,-34.63975 -2.00585,-33.81176 -1.04598,0.64645 -1.13304,72.72506 -0.0971,80.41088 0.8844,6.56166 1.87727,-15.43895 2.10297,-46.59912 z M 297.92742,441.36514 C 299.76641,439.02725 300,437.35819 300,426.55627 300,410.41561 299.90437,410.28515 289.4163,412.11719 281.5,413.5 281.5,413.5 281.21721,424.75447 c -0.16612,6.61113 0.15605,12.07446 0.78087,13.24195 1.35151,2.52532 7.68536,5.90171 11.17934,5.95938 1.73638,0.0287 3.40587,-0.88188 4.75,-2.59066 z m 29.03394,1.15484 c 1.57413,-0.81401 3.80178,-2.6747 4.95034,-4.13486 1.94009,-2.46642 2.0883,-3.91816 2.0883,-20.45488 0,-9.79002 -0.46026,-19.0106 -1.02279,-20.49018 -0.96196,-2.53015 -1.32157,-2.66143 -6.04675,-2.2074 -3.74208,0.35957 -5.7775,1.20467 -7.97721,3.31213 C 316,401.37418 316,401.37418 316,421.32685 c 0,17.8298 0.18619,20.094 1.75,21.2811 2.31855,1.76003 5.70018,1.72773 9.21136,-0.088 z m 113.91393,-8.50653 C 447.54461,424.80673 456,405.5298 456,399.53155 c 0,-2.51689 -0.0507,-2.53147 -8.75,-2.5179 -10.05463,0.0157 -12.87719,0.57244 -13.69405,2.70113 -0.5894,1.53596 1.08842,31.88613 1.9921,36.03522 0.70403,3.23243 2.0442,2.79556 5.32724,-1.73655 z m -84.94558,-33.32247 c 0.044,-3.63415 -0.30411,-5.57762 -0.92971,-5.19098 -0.55,0.33992 -0.96837,3.85398 -0.92971,7.80902 0.085,8.70023 1.75086,6.35479 1.85942,-2.61804 z m -60.72893,3.18581 c 7.26469,-1.5398 12.2456,-4.24165 18.22585,-9.88645 5.07337,-4.78879 5.07337,-4.78879 22.25107,-5.13957 15.54888,-0.31751 17.44531,-0.54913 20,-2.44272 5.35178,-3.96685 7.3223,-8.06222 7.3223,-15.21808 0,-8.52952 -3.03821,-14.06187 -9.41862,-17.15057 -6.06421,-2.93564 -8.61575,-2.12048 -27.87517,8.90545 -30.51774,17.47126 -47.31489,28.13556 -39.70621,25.20898 1.375,-0.52888 4.67481,-1.90485 7.33291,-3.05771 5.67184,-2.45999 6.66709,-2.5692 6.66709,-0.73164 0,0.75047 -3.43338,3.01709 -7.62972,5.03695 -4.19635,2.01985 -7.38447,3.91772 -7.0847,4.21748 0.29976,0.29976 3.80109,-0.37642 7.78074,-1.50263 3.97964,-1.1262 7.63961,-1.79803 8.13326,-1.49294 1.46718,0.90677 -1.08879,3.18516 -5.02957,4.48334 -10.52015,3.4656 -13.98639,6.40111 -4.08714,3.46135 6.57458,-1.95244 8.91713,-1.98143 8.91713,-0.11038 0,0.93951 -2.48827,2.1987 -7,3.54235 -9.96532,2.9678 -9.24657,4.09118 1.20078,1.87679 z M 445.77885,388.25 c 1.26232,-2.82306 1.68228,-6.71621 1.69897,-15.75 0.0261,-14.12055 -0.8291,-16.5 -5.9303,-16.5 -3.66225,0 -3.87155,0.3538 -7.98628,13.5 -0.86074,2.75 -3.36271,7.7 -5.55993,11 -2.19722,3.3 -3.99638,6.50487 -3.99813,7.12193 -0.004,1.5423 9.45366,4.19921 15.29785,4.2974 4.61088,0.0775 4.86743,-0.0679 6.47782,-3.66933 z m 11.53936,-10.80586 c -0.1,-6.01928 -0.80171,-13.19414 -1.55939,-15.94414 -1.26664,-4.59726 -1.64466,-5.02599 -4.69314,-5.32268 -3.25173,-0.31646 -3.30418,-0.25874 -2.72548,3 1.57868,8.88994 1.7441,13.99982 0.69886,21.5877 -0.62619,4.54576 -0.8836,8.67751 -0.57201,9.18166 0.33322,0.53916 2.30975,0.40702 4.79973,-0.32089 4.23322,-1.23752 4.23322,-1.23752 4.05143,-12.18165 z m -181.29,6.97571 c 4.10949,-1.96908 10.05526,-5.14921 13.21284,-7.06696 6.54267,-3.97368 6.66959,-2.11806 -1.05017,-15.35289 -3.79139,-6.5 -3.79139,-6.5 -15.24114,-6.17761 -13.58288,0.38244 -16.2173,1.51342 -19.81652,8.50737 -2.24833,4.36893 -2.35798,5.18464 -1.30826,9.73225 1.40777,6.0988 3.65029,9.64669 7.63224,12.07496 4.42387,2.69776 8.16652,2.30994 16.57101,-1.71712 z m 191.02145,0.0545 c 3.54029,-1.83075 3.61586,-2.98446 0.9045,-13.80771 C 464.27564,355.9827 464.28453,356 460.42245,356 c -1.88235,0 -3.4136,0.3375 -3.40278,0.75 0.0108,0.4125 0.67013,4.35 1.46512,8.75 0.79499,4.4 1.46113,10.8125 1.48032,14.25 0.0314,5.62246 0.24069,6.25 2.08455,6.25 1.12731,0 3.37731,-0.68656 5,-1.52568 z m 69.50529,-4.05458 c 5.33617,-3.54194 7.48914,-6.77565 5.70141,-8.56338 -0.51828,-0.51828 -4.72548,-0.81048 -9.34934,-0.64934 C 524.5,371.5 524.5,371.5 524.16733,375 c -0.18296,1.925 0.16776,5.17134 0.77938,7.21408 1.03537,3.45798 1.28939,3.64665 3.68389,2.73626 1.41452,-0.53779 4.98047,-2.57656 7.92435,-4.5306 z m -111.65668,1.04334 c 1.708,-1.9453 4.19278,-5.68265 5.52174,-8.30522 C 432.84305,368.37622 434.77002,361 433.59614,361 c -0.34454,0 -3.07773,1.38342 -6.07376,3.07428 -4.25371,2.40064 -7.09892,3.19918 -12.98485,3.64433 -6.01938,0.45525 -7.53678,0.89347 -7.53379,2.17573 0.009,3.97234 9.53609,15.10566 12.926,15.10566 1.02469,0 3.26053,-1.59161 4.96853,-3.53692 z m 65.07549,-2.44969 C 495.79057,376.04587 497,373.6938 497,365.34892 c 0,-5.21763 -0.43362,-7.63968 -1.57143,-8.77749 -1.77167,-1.77168 -7.01487,-2.05942 -10.86347,-0.59618 -2.54566,0.96786 -2.5651,1.06131 -2.5651,12.33333 0,6.24695 0.3,11.65809 0.66667,12.02475 1.13184,1.13184 3.25184,0.74889 7.30709,-1.31994 z m -14.58075,-0.59518 C 475.72686,377.54823 476,372.14823 476,366.41821 476,356 476,356 471.03138,356 c -3.51286,0 -4.85619,0.36624 -4.58491,1.25 0.21103,0.6875 1.38467,5.525 2.60809,10.75 2.14326,9.15349 3.32003,12 4.9609,12 0.42381,0 1.04371,-0.7118 1.37755,-1.58179 z m 83.23652,-1.31956 c 7.07826,-3.34861 8.19638,-4.58627 5.46422,-6.04848 -4.14372,-2.21765 -13.71488,-0.81926 -14.65445,2.14108 -0.83023,2.61584 0.29673,6.80894 1.82975,6.80796 0.67702,-4.3e-4 3.98924,-1.30569 7.36048,-2.90056 z M 373.92784,371.3646 c 1.14016,-1.44947 2.57379,-4.30685 3.18585,-6.34973 0.94093,-3.14054 0.80541,-4.39408 -0.87725,-8.1146 -2.67605,-5.91696 -8.42169,-12.33849 -13.9261,-15.56429 -3.40301,-1.99429 -6.31145,-2.76478 -11.75534,-3.11414 -9.12871,-0.58585 -11.79777,0.61078 -11.3634,5.0946 0.3084,3.18356 0.3084,3.18356 9.03439,3.70717 8.5275,0.51169 8.81767,0.61313 12.75643,4.45923 4.14632,4.04877 7.22132,10.66805 8.48604,18.26716 0.82253,4.94217 1.61595,5.22944 4.45938,1.6146 z m -66.10795,-5.36896 c 4.77561,-2.16725 4.80865,-3.41993 0.11498,-4.35867 -1.89221,-0.37844 -2.93391,-1.11307 -2.66463,-1.87916 0.30483,-0.86724 2.38748,-1.18068 6.70705,-1.00941 5.48658,0.21753 6.1094,0.061 5.013,-1.2601 -0.68857,-0.82967 -3.66807,-2.21088 -6.62111,-3.06936 C 307.41613,353.56047 305,352.46149 305,351.97676 c 0,-0.48473 2.8125,-1.02307 6.25,-1.19631 6.25,-0.31498 6.25,-0.31498 2.25,-2.08449 -2.2,-0.97323 -5.08096,-2.2245 -6.40213,-2.78061 -1.70099,-0.71598 -2.09089,-1.32233 -1.33582,-2.0774 0.73391,-0.73391 2.80756,-0.76631 6.65213,-0.10394 3.0722,0.5293 5.58582,0.58983 5.58582,0.1345 C 318,342.69865 310.47802,339 308.09886,339 c -1.08946,0 -2.29004,-0.50031 -2.66796,-1.1118 -1.14336,-1.85 1.46713,-2.64092 5.88991,-1.78453 6.58304,1.27469 7.17121,1.19432 5.55163,-0.75857 -3.36968,-4.0632 -11.76127,-5.48819 -16.84326,-2.86019 -6.16886,3.19004 -9.94496,12.92253 -8.57035,22.08911 0.58602,3.90784 1.58283,5.7308 5.00489,9.15285 2.35022,2.35022 4.89483,4.26325 5.6547,4.25117 0.75987,-0.0121 3.32553,-0.90416 5.70147,-1.9824 z M 246.89205,362.25 c 2.58969,-5.02476 7.63412,-9.70225 13.08844,-12.13636 3.74819,-1.67271 4.16783,-2.11949 2.56752,-2.73359 -2.30094,-0.88296 -16.08886,0.998 -19.83827,2.70634 -1.46921,0.66942 -2.91845,1.99585 -3.22054,2.94762 C 238.8511,355.0445 242.706,366 244.05153,366 c 0.4993,0 1.77753,-1.6875 2.84052,-3.75 z m 174.41125,2.6827 c 7.31026,-2.02999 12.39531,-8.9327 6.5805,-8.9327 -8.8406,0 -17.51088,-6.07076 -22.77444,-15.9462 -1.89499,-3.55536 -3.6904,-5.81273 -4.31578,-5.42623 -1.32494,0.81886 -0.48791,15.74819 1.2748,22.73744 1.07786,4.27379 1.7255,5.09141 5.32929,6.72804 4.68095,2.1258 8.45369,2.35361 13.90563,0.83965 z m 119.51689,-1.80041 c 1.42821,-0.90558 -6.19493,-2.10834 -13.45941,-2.1236 -5.31246,-0.0111 -8.91404,-2.69017 -7.90224,-5.87805 0.96613,-3.04403 4.32682,-4.12777 12.85656,-4.14595 3.95169,-0.008 7.8599,-0.45153 8.6849,-0.98469 1.02964,-0.6654 -1.47898,-0.99225 -8,-1.04232 -5.225,-0.0401 -11.3,-0.41063 -13.5,-0.82335 -4,-0.75042 -4,-0.75042 0.5,-1.47155 2.475,-0.39663 5.175,-1.15112 6,-1.67665 2.07321,-1.32064 -17.5366,-1.3045 -20.00486,0.0165 -4.04414,2.16436 -3.79993,16.33133 0.31005,17.98665 2.80623,1.13023 32.76228,1.25438 34.515,0.14304 z m 12.94768,-24.56442 c 0.17349,-16.14775 -0.0955,-25.29546 -0.76333,-25.96333 -1.34592,-1.34592 -45.54474,-0.92098 -48.13023,0.46273 -1.67779,0.89792 -1.87431,2.30386 -1.87431,13.4089 0,8.82649 0.36065,12.63921 1.25,13.21481 0.6875,0.44496 6.3039,1.03402 12.48088,1.30902 9.97361,0.44403 11.39609,0.73589 12.70667,2.60718 1.13017,1.61369 2.89987,2.23632 7.55648,2.65856 5.72918,0.51951 9.00597,1.90995 9.00597,3.82152 0,1.80064 -4.66269,3.17056 -13.19774,3.87756 -8.41008,0.69664 -12.125,2.0421 -10.4052,3.76851 0.42005,0.42167 5.44681,0.99843 11.17057,1.28169 9.10606,0.45064 10.68968,0.79905 12.66961,2.78743 1.40931,1.41532 3.20569,2.164 4.76276,1.98498 2.5,-0.28743 2.5,-0.28743 2.76787,-25.21956 z M 521.63029,333.75 c -0.33164,-1.2375 -0.60913,-4.62662 -0.61664,-7.53138 -0.01,-3.76276 -0.44497,-5.4469 -1.51365,-5.85699 C 516.43087,319.18389 518.15584,318 522.94098,318 c 4.82274,0 7.40258,1.27045 4.69202,2.31059 -0.81911,0.31432 -1.63096,2.95472 -2.05156,6.67231 -0.76831,6.79104 -1.40322,9.0171 -2.5718,9.0171 -0.42701,0 -1.04772,-1.0125 -1.37935,-2.25 z M 531,334.97148 c 0,-0.56568 1.37946,-3.76122 3.06548,-7.10119 3.20296,-6.34503 3.17445,-8.12573 -0.0974,-6.08244 -2.71634,1.69639 -3.15288,1.53386 -2.78764,-1.03785 0.2789,-1.96375 0.99444,-2.2887 5.62434,-2.55416 5.30479,-0.30416 5.30479,-0.30416 1.63007,6.79674 -3.65422,7.06129 -3.94364,10.65911 -0.48902,6.07922 1.80905,-2.39831 1.80905,-2.39831 3.00861,-0.15691 C 542.9448,334.6339 541.62224,336 536.03138,336 533.25079,336 531,335.53989 531,334.97148 Z m 56.75,21.39076 c 4.95775,-1.78205 5.79303,-3.92085 1.17016,-2.99627 -4.13744,0.82749 -9.92016,3.63448 -9.92016,4.81536 0,1.02165 2.00871,0.60405 8.75,-1.81909 z M 381.375,352.875 c 0.34375,-1.71875 0.625,-5.47152 0.625,-8.33948 0,-6.06841 -0.79933,-6.68579 -11.06671,-8.54762 -11.75362,-2.13133 -11.83604,-1.32543 -1.01298,9.90465 5.26883,5.46697 9.86094,9.97763 10.20469,10.0237 0.34375,0.0461 0.90625,-1.3225 1.25,-3.04125 z m 206.88319,-4.58153 C 594.98727,343.85472 595.965,342 591.57584,342 c -3.19879,0 -13.35044,7.94716 -15.72557,12.31066 -0.94256,1.73165 -0.84078,1.73713 2.33208,0.12571 1.82471,-0.92673 6.35884,-3.69103 10.07584,-6.1429 z M 331.25,352.19291 c 1.58588,-1.36194 1.74856,-3.99706 1.73469,-28.0979 -0.0142,-24.60694 -0.59297,-30.81264 -2.68032,-28.73737 -0.4424,0.43984 -1.02937,4.91426 -1.30437,9.94315 -0.5,9.14344 -0.5,9.14344 -7.25,12.40083 -4.49056,2.16705 -6.75,3.83854 -6.75,4.99354 0,0.95488 2.0779,3.84577 4.61757,6.4242 4.60927,4.67964 4.61919,4.70485 5.52409,14.03435 1.26472,13.03931 1.33294,13.14026 6.10834,9.0392 z m 100.81574,0.77191 C 433.84497,352.0126 434,350.7377 434,337.05865 c 0,-14.87097 0,-14.87097 -5.25,-15.57576 -7.73006,-1.03772 -11.12027,-2.77781 -14.35488,-7.3679 -1.59232,-2.25958 -3.56847,-3.99148 -4.39145,-3.84867 -0.82299,0.14281 -2.52447,2.72881 -3.78108,5.74667 -4.57375,10.98428 -1.0935,26.17 7.49976,32.7244 5.97466,4.5571 14.1898,6.45036 18.34339,4.22743 z M 573.67012,346.5 C 579.55169,339.22615 589,325.84926 589,324.79602 c 0,-0.49808 -2.12745,-0.76845 -4.72766,-0.60081 -4.72767,0.30479 -4.72767,0.30479 -9.93506,11.87196 -5.12907,11.39316 -7.55784,18.45367 -5.6528,16.43283 0.51848,-0.55 2.76202,-3.25 4.98564,-6 z m 9.46996,-3.18718 C 588.56303,337.98486 593,333.25986 593,332.81282 593,332.36577 591.96633,332 590.70295,332 c -2.99802,0 -10.69206,8.18029 -17.16518,18.25 -3.14221,4.88807 -0.46566,2.9544 9.60231,-6.93718 z M 447.44528,338 c -0.0426,-8.17793 -0.58621,-12.19854 -2.458,-18.18047 -1.3218,-4.22426 -2.75967,-7.4602 -3.19528,-7.19098 -0.93255,0.57635 -1.08281,32.45005 -0.16425,34.84376 0.40904,1.06596 1.54131,1.52994 3.25,1.33179 C 447.5,348.5 447.5,348.5 447.44528,338 Z M 467,347.45196 c 0,-3.567 -15.65647,-25.19549 -17.1543,-23.69766 -0.90021,0.90021 0.65498,22.62877 1.74597,24.39403 0.2895,0.46842 3.87481,0.85167 7.96735,0.85167 C 465.60918,349 467,348.71065 467,347.45196 Z M 495.96959,340.75 c -0.023,-6.2366 -0.28591,-7.81085 -1.07735,-6.45057 -1.83322,3.15083 -2.38637,12.77421 -0.79228,13.78351 0.77002,0.48754 1.51254,0.89333 1.65004,0.90175 0.1375,0.008 0.23632,-3.69719 0.21959,-8.23469 z m 70.62303,-11.58815 c 1.93169,-8.49553 3.27771,-16.05738 2.99116,-16.80413 -0.76184,-1.9853 -8.20022,-1.79964 -8.97679,0.22407 -0.81222,2.11662 -0.75332,31.26912 0.0694,34.34447 0.64907,2.42626 0.64907,2.42626 1.52658,0.0541 0.48263,-1.30467 2.45798,-9.32301 4.38966,-17.81854 z m 7.96593,2.08078 c 3.09536,-6.77286 5.37509,-12.97317 5.06607,-13.77846 -0.58903,-1.535 -4.34171,-1.95631 -6.22492,-0.69886 -0.60516,0.40408 -1.57139,1.63469 -2.14718,2.73469 -1.30336,2.48996 -6.25489,24.38633 -6.24593,27.62041 0.006,2.30605 0.0671,2.28775 1.96531,-0.59195 1.0773,-1.63434 4.49129,-8.51296 7.58665,-15.28583 z m -328.20289,15.17988 c 3.37938,-0.86762 6.53167,-1.95245 7.00508,-2.41074 0.47341,-0.45829 -1.44048,-3.59844 -4.25308,-6.97813 -2.8126,-3.37968 -5.82573,-7.52156 -6.69584,-9.20416 -1.98732,-3.84305 -3.08599,-2.82054 -4.39696,4.09215 -1.29657,6.83681 -1.28959,11.69651 0.0203,14.14411 1.24373,2.32392 0.74215,2.30242 8.32048,0.35677 z m 40.50874,-5.16845 c 1.34363,-3.42852 4.3988,-8.52501 6.78928,-11.32552 5.48234,-6.42273 5.56608,-8.85557 0.42199,-12.25977 -2.15838,-1.42835 -5.53338,-4.00976 -7.5,-5.73647 C 283,308.79282 283,308.79282 283,298.89641 283,290.76627 282.73229,289 281.5,289 c -1.29751,0 -1.5,3.76869 -1.5,27.91821 0,15.35502 0.28162,28.65211 0.62583,29.54909 1.21211,3.15872 3.80762,0.98979 6.23857,-5.21324 z m 183.58374,-6.49232 C 459.74057,319.12296 440.88416,294 439.85383,294 c -2.22877,0 -2.53171,-0.46254 21.61324,33 11.57523,16.04213 15.90058,21.39706 16.30445,20.18543 0.21303,-0.63907 -3.0825,-6.22973 -7.32338,-12.42369 z M 272.8,344.8 c 1.57587,-1.57587 1.54247,-7.28384 -0.05,-8.54524 -0.6875,-0.54457 -3.5871,-1.7524 -6.44355,-2.68406 -9.43228,-3.07644 -15.43767,-8.89683 -18.38714,-17.8207 -1.48854,-4.50372 -3.24323,-4.79642 -4.89195,-0.81605 -2.13754,5.16048 0.98211,13.75013 7.6908,21.17585 3.89132,4.30722 7.4135,6.47733 13.78184,8.49138 5.15926,1.63165 6.82721,1.67161 8.3,0.19882 z M 484,319.6446 c 0,-20.35539 0,-20.35539 -6.63773,-20.97523 -3.65076,-0.34091 -7.70076,-1.31636 -9,-2.16766 C 466.34561,295.18035 466,295.1658 466,296.40231 466,299.44547 482.2273,340 483.44497,340 483.75024,340 484,330.84007 484,319.6446 Z m -130.79473,13.80112 c 8.82689,-3.00762 16.11608,-11.53279 17.86154,-20.89023 C 371.87014,308.24883 370.75855,304 368.8285,304 c -0.67155,0 -2.90239,1.1652 -4.95741,2.58934 -4.94745,3.42858 -10.58796,3.43484 -18.1496,0.0201 C 342.5433,305.17426 339.7308,304 339.47149,304 c -0.74102,0 -0.55064,29.58751 0.19518,30.33333 1.20206,1.20207 8.88379,0.69845 13.5386,-0.88761 z m 27.43537,-4.60982 c -0.35435,-3.39025 -1.79357,-8.67448 -3.19826,-11.74272 -2.55398,-5.57862 -2.55398,-5.57862 -5.83812,0.56811 -1.80629,3.3807 -4.74375,7.98963 -6.52771,10.24206 -2.33335,2.94609 -2.86935,4.23317 -1.91006,4.58651 1.89708,0.69876 11.79535,2.25458 15.22597,2.39324 2.89245,0.1169 2.89245,0.1169 2.24818,-6.0472 z M 273,324 c 0,-7 0,-7 -6.96515,-7 -6.96515,0 -6.96515,0 -11.5,-4.73253 C 250,307.53495 250,307.53495 250,311.20237 c 0,6.87646 2.70577,11.28194 10.40004,16.93316 2.88086,2.11591 5.03679,2.86447 8.25,2.86447 C 273,331 273,331 273,324 Z m 34.98469,-6.25 c -0.008,-2.8875 -0.40811,-5.87015 -0.8882,-6.62812 -1.68467,-2.65976 -3.09649,0.0472 -3.09649,5.93714 0,5.27431 0.22443,5.94098 2,5.94098 1.74798,0 1.99807,-0.66156 1.98469,-5.25 z m 124.44388,-0.32143 C 433.62031,316.23684 434,313.71956 434,307.01036 c 0,-9.94907 -0.49175,-12.01465 -2.85699,-12.00059 -2.43408,0.0145 -11.30746,4.42693 -13.89301,6.90857 -4.3767,4.2008 -1.95043,13.64154 4.13812,16.10159 3.49257,1.41116 9.35177,1.09732 11.04045,-0.59136 z m -163.46801,-3.40746 c 2.66699,-1.42733 4.04152,-6.35294 4.02413,-14.42033 -0.0201,-9.31875 -0.53958,-10.08882 -5.62406,-8.33707 -5.89608,2.03137 -13.25207,7.45556 -13.96546,10.29793 -1.9487,7.76425 8.5844,16.19558 15.56539,12.45947 z m 193.05589,-9.82225 C 457.00034,291.19167 453.31114,287.15757 449,289.96554 c -1.30272,0.84849 -1.20314,1.53973 0.75713,5.25572 3.57929,6.7851 14.66859,20.52223 15.03417,18.62394 0.17313,-0.89904 -1.07555,-5.23989 -2.77485,-9.64634 z M 577,311.69578 c 0,-3.25495 -5.15801,-10.99204 -12.2553,-18.38313 -5.97637,-6.22377 -9.0028,-7.68841 -10.08099,-4.87868 -0.6909,1.80046 2.89431,7.13493 11.75147,17.48515 C 573.49342,314.19055 577,316.10426 577,311.69578 Z m -255.25,-0.97346 c 1.75618,-1.35887 1.64696,-10.63276 -0.13327,-11.3159 -0.76079,-0.29194 -2.94698,0.12256 -4.8582,0.92111 -3.4461,1.43987 -3.469,1.49103 -2.75969,6.16482 0.94634,6.23567 3.41673,7.58381 7.75116,4.22997 z m -23.30015,-3.46287 c 0.36927,-1.5177 1.60867,-3.48508 2.75423,-4.37196 2.04143,-1.58046 1.99551,-1.64509 -2.31063,-3.25202 -2.4164,-0.90173 -5.51845,-1.7511 -6.89345,-1.88749 -2.33005,-0.23112 -2.5,0.0552 -2.5,4.21219 0,3.94936 0.38627,4.72047 3.37282,6.73311 3.86289,2.60319 4.64361,2.40247 5.57703,-1.43383 z m 195.95206,-6.99126 C 495.99101,291.82481 495.76261,289 493.49084,289 c -2.77364,0 -4.39824,10.21301 -2.85334,17.9375 0.9212,4.60599 2.00306,2.68927 3.76441,-6.66931 z m 68.59435,6.98181 c -0.009,-4.31926 -9.64954,-15.25 -13.44966,-15.25 -4.28613,0 -5.78462,4.18873 -3.38366,9.45828 0.81407,1.78668 2.38904,2.85279 5.25,3.55376 2.24789,0.55076 5.21206,1.63222 6.58706,2.40324 3.46193,1.94127 5.00065,1.89037 4.99626,-0.16528 z m 19.175,-0.90499 c 3.61945,-3.27556 2.35872,-6.78105 -5.36187,-14.90882 -8.03512,-8.45889 -10.00402,-9.82658 -12.84716,-8.9242 -2.93167,0.93047 -2.41667,2.85063 2.33315,8.6991 2.36246,2.9089 6.20166,7.87641 8.53155,11.03891 2.32989,3.1625 4.52403,5.75 4.87587,5.75 0.35185,0 1.46265,-0.74474 2.46846,-1.65499 z m -218.50042,-2.5613 c 3.33799,-3.33799 2.50291,-5.88007 -3.22656,-9.82205 -8.50192,-5.84947 -19.32575,-7.92016 -21.37592,-4.08939 -2.11906,3.95949 2.41577,12.59608 8.14982,15.52135 4.89341,2.4964 13.15472,1.68802 16.45266,-1.60991 z M 522,304.27355 C 522.58755,303.72103 513.18437,295 512.00108,295 511.05155,295 509,300.52072 509,303.0759 c 0,0.9776 0.7875,1.98804 1.75,2.24544 1.90367,0.50908 10.43986,-0.28596 11.25,-1.04779 z m 20.07919,0.13103 c 1.10364,-1.3298 1.07729,-2.03736 -0.15828,-4.25 -1.73446,-3.10603 -7.505,-4.95059 -15.87386,-5.0741 C 520.5941,295 520.5941,295 524.4507,298.94951 c 6.45727,6.61285 14.58124,9.12678 17.62849,5.45507 z m -38.30148,-7.11939 c 0.36187,-4.67205 0.20224,-5.55145 -0.82962,-4.57038 -0.70274,0.66814 -1.47935,3.81814 -1.7258,7 -0.36187,4.67205 -0.20224,5.55145 0.82962,4.57038 0.70274,-0.66814 1.47935,-3.81814 1.7258,-7 z m 81.82006,-7.48155 c -1.48222,-2.917 -4.26563,-7.45929 -6.18535,-10.09397 -3.49039,-4.79034 -3.49039,-4.79034 -6.45141,-2.68191 -1.62855,1.15964 -2.96101,2.6096 -2.96101,3.22215 0,0.61255 3.60409,4.71782 8.00909,9.12282 5.98388,5.98388 8.29667,7.72151 9.14636,6.87182 0.8497,-0.8497 0.45582,-2.47838 -1.55768,-6.44091 z m -267.8063,2.50467 c 4.03479,-3.00951 3.96942,-5.00421 -0.20174,-6.15592 -4.77363,-1.31807 -9.00974,-4.47788 -11.58133,-8.63879 -1.68244,-2.72226 -2.32742,-6.04302 -3.05559,-15.73211 -1.17878,-15.68506 -1.5677,-17.3334 -4.66445,-19.7693 -3.07751,-2.42078 -5.59622,-2.56147 -7.72612,-0.43157 -2.00443,2.00442 -1.32459,3.09303 2.44923,3.9219 5.04375,1.10779 3.31922,5.00064 -2.50694,5.65899 -2.72081,0.30745 -3.07607,0.78224 -3.87458,5.17826 -0.84176,4.63415 -0.74637,4.961 2.24547,7.69363 2.93019,2.67631 3.12458,3.28944 3.12458,9.85544 0,7.00158 0,7.00158 4.75,7.30637 4.75,0.30479 4.75,0.30479 5.26052,5.80479 0.28079,3.025 0.90131,6.11341 1.37894,6.86314 1.29224,2.02839 11.00368,0.97996 14.40201,-1.55483 z m 164.142,-20.42542 c 2.45065,-3.88256 3.42119,-6.60364 3.48209,-9.76273 0.0844,-4.37984 0.0844,-4.37984 -4.77117,-5.81106 -2.67059,-0.78716 -4.98705,-1.29124 -5.14768,-1.12015 -0.16064,0.17108 -1.77698,7.51745 -3.59185,16.32528 -2.20243,10.68864 -3.01107,16.67461 -2.43162,18 0.65064,1.48823 1.15236,-0.0594 2.00248,-6.17683 1.77901,-12.80188 6.04202,-15.75786 4.8928,-3.39267 -0.34887,3.75372 -0.25656,8.56426 0.20513,10.6901 0.75308,3.46753 0.89719,2.97867 1.40081,-4.75194 0.49251,-7.56011 0.97813,-9.27738 3.95901,-14 z M 599.42494,289.25 c 4.72843,-7.2276 4.11171,-11.49177 -3.02922,-20.94489 -2.14303,-2.83694 -2.72056,-3.08772 -5.15458,-2.23834 -1.50763,0.5261 -4.08475,2.02855 -5.72695,3.33878 -2.98581,2.38224 -2.98581,2.38224 -1.17567,6.17814 2.80487,5.88189 10.50525,17.41631 11.62712,17.41631 0.55329,0 2.10998,-1.6875 3.4593,-3.75 z M 295,289 c 0,-0.55 -0.45,-1 -1,-1 -0.55,0 -1,0.45 -1,1 0,0.55 0.45,1 1,1 0.55,0 1,-0.45 1,-1 z m 168.66228,-2.25 c -0.27741,-0.6875 -0.50439,-0.125 -0.50439,1.25 0,1.375 0.22698,1.9375 0.50439,1.25 0.27741,-0.6875 0.27741,-1.8125 0,-2.5 z m 19.92612,-4.49494 c -1.0924,-1.0924 -1.84148,0.64486 -1.05718,2.45181 0.74368,1.71337 0.79759,1.71181 1.21194,-0.0351 0.2385,-1.00555 0.16886,-2.09305 -0.15476,-2.41667 z m -37.28423,-1.05723 c 3.07873,-7.69451 4.91232,-24.32796 2.82406,-25.61858 -0.47947,-0.29633 -1.38182,3.4384 -2.00521,8.29939 -0.6234,4.86099 -1.80124,11.03938 -2.61741,13.72976 -0.81618,2.69038 -1.48883,5.4541 -1.49479,6.1416 -0.0221,2.55562 1.82117,1.12716 3.29335,-2.55217 z m 8.62697,-5.31235 C 456.18065,270.05922 456.3618,258 455.19981,258 c -0.4401,0 -1.3335,4.3875 -1.98533,9.75 -0.65183,5.3625 -1.48928,11.1 -1.86101,12.75 -0.59971,2.66196 -0.49644,2.85179 0.91647,1.6847 0.87579,-0.72341 2.07333,-3.55806 2.6612,-6.29922 z M 285,274.8803 c 0,-2.70346 -1.79286,-5.31125 -4.20404,-6.11498 -0.96658,-0.32219 -0.84884,-2.93095 0.53433,-11.83929 2.709,-17.44735 4.10228,-21.58108 7.9438,-23.56858 5.53627,-2.86432 12.89845,-4.33326 21.77957,-4.34558 7.22466,-0.01 9.36536,0.39262 13.77796,2.59151 5.70787,2.84436 9.35097,6.96704 10.95453,12.39662 0.56853,1.925 1.3005,9.7852 1.6266,17.46712 0.68213,16.06887 1.72226,18.63357 5.94725,14.6644 1.32067,-1.2407 3.91744,-5.49036 5.77061,-9.44367 C 352.28616,259.95617 352.5,258.83362 352.5,249 c 0,-9.73944 -0.2319,-10.98955 -3.20145,-17.25853 -4.25282,-8.97804 -11.87879,-16.91632 -20.18136,-21.00784 -5.86826,-2.89189 -7.64812,-3.26968 -16.84158,-3.57472 -8.38697,-0.27828 -11.40837,0.04 -16.40851,1.72859 -8.1793,2.7622 -15.71803,8.63957 -20.75305,16.17957 -5.66594,8.48481 -7.44534,15.12058 -6.93226,25.85195 0.48195,10.08057 4.04909,19.01014 10.40405,26.04432 3.51794,3.89393 3.90909,4.08029 5.1118,2.43549 0.7163,-0.9796 1.30236,-3.01294 1.30236,-4.51853 z m 177.17014,-6.09565 c 0.72595,-6.39085 0.75544,-10.47516 0.0896,-12.40606 -0.93497,-2.71122 -1.02706,-2.5588 -1.58373,2.62141 -0.32507,3.025 -0.83719,9.07954 -1.13804,13.45454 -0.77706,11.30004 1.25328,8.46929 2.63221,-3.66989 z m -151.14583,3.68824 C 310.54951,270.2878 309.88489,264.9 309.54736,260.5 c -1.02458,-13.35646 -1.58673,-16.5937 -2.75601,-15.87105 -1.33459,0.82483 -0.2747,23.96953 1.2856,28.07344 0.91314,2.40174 2.92656,4.62743 3.58787,3.96612 0.12251,-0.12251 -0.16572,-2.01054 -0.64051,-4.19562 z m 5.91417,-11.77975 c -0.6031,-13.69196 -1.6274,-18.33755 -3.60681,-16.35814 -0.94786,0.94786 1.31445,24.35142 2.75278,28.47742 0.63074,1.80932 1.22767,3.1542 1.32651,2.98863 0.0989,-0.16558 -0.11377,-6.96414 -0.47248,-15.10791 z m 14.41477,-2.96511 c -0.33843,-4.27459 -1.00637,-8.01364 -1.48429,-8.30902 -1.03266,-0.63822 -1.15375,20.97257 -0.13773,24.58099 1.17909,4.18757 2.32875,-7.3457 1.62202,-16.27197 z m -6.88227,3.02197 c -0.71934,-13.41844 -1.66721,-17.9871 -3.00918,-14.50402 -0.89322,2.31836 -0.16225,24.9076 0.85765,26.50402 2.31132,3.61784 2.83284,0.70911 2.15153,-12 z m 145.27682,-2.52089 c -0.13629,-1.79899 -0.6978,-3.26422 -1.2478,-3.25605 -0.57692,0.009 -1.0682,3.71937 -1.16121,8.77089 -0.16121,8.75605 -0.16121,8.75605 1.2478,3.25605 0.77496,-3.025 1.2975,-6.9719 1.16121,-8.77089 z m 141.36788,5.8783 c 2.14707,-1.73859 2.22349,-2.10516 0.93914,-4.50498 -1.45102,-2.71125 -5.17077,-6.65409 -8.45062,-8.95745 -1.75781,-1.23446 -1.4864,-1.5656 3.72887,-4.54947 5.40182,-3.09061 7.32712,-4.76865 6.4629,-5.63287 -0.61573,-0.61574 -10.55773,4.8471 -14.39782,7.91118 -4.07465,3.25124 -4.25006,5.49679 -0.87876,11.24949 3.87643,6.61461 8.10586,8.12023 12.59629,4.4841 z m -172.11766,-5.60503 c 1.04208,-1.25562 0.72404,-1.71579 -1.96815,-2.84777 -3.21106,-1.35015 -3.21106,-1.35015 0.37953,-3.46866 1.97483,-1.16517 3.5906,-2.49948 3.5906,-2.96513 0,-0.46565 -1.334,-2.12469 -2.96444,-3.68675 -1.63045,-1.56207 -2.75531,-3.1785 -2.4997,-3.59209 0.2556,-0.41358 3.01855,-0.0851 6.13987,0.73002 4.35003,1.13595 9.89545,1.38351 23.7497,1.06021 9.94102,-0.23197 19.02364,-0.75252 20.18362,-1.15676 1.79942,-0.62709 2.20401,-0.26016 2.75593,2.49947 1.27602,6.38007 5.00488,7.81293 8.56244,3.29022 2.80966,-3.5719 2.61472,-6.79353 -0.56228,-9.29256 C 493.94079,237.16559 492.40912,237 477.19388,237 c -13.94686,0 -16.82119,0.25773 -18.35501,1.64582 -1.00023,0.9052 -4.03194,1.85849 -6.73713,2.11843 -4.12184,0.39605 -5.21231,0.12947 -6.73237,-1.64582 C 443.92051,237.42628 442.42292,237 437.92698,237 c -3.09569,0 -7.05936,0.49879 -8.80814,1.10842 -8.23642,2.87123 -8.04738,17.5512 0.26928,20.91151 3.38521,1.36778 8.26325,1.10507 9.6099,-0.51755 z m 183.97302,-3.46332 c 0.80907,-0.51167 1.22622,-1.17513 0.927,-1.47435 -0.29922,-0.29923 -1.41119,0.11199 -2.47104,0.91382 -2.10837,1.59508 -0.82724,2.06017 1.54404,0.56053 z m -144.20313,-6.75359 c -1.50265,-0.22817 -4.20265,-0.23276 -6,-0.0102 -1.79735,0.22256 -0.56791,0.40925 2.73209,0.41486 3.3,0.006 4.77056,-0.17648 3.26791,-0.40466 z M 625,247.05902 c 0,-0.51754 -0.45,-1.2191 -1,-1.55902 -0.55,-0.33992 -1,0.0835 -1,0.94098 0,0.85746 0.45,1.55902 1,1.55902 0.55,0 1,-0.42344 1,-0.94098 z m -13.26535,-9.90054 c 2.07094,-1.76886 6.12785,-4.79198 9.01535,-6.71803 2.8875,-1.92605 5.25,-3.67628 5.25,-3.88939 0,-0.21312 0.27314,-1.09929 0.60699,-1.96927 1.14639,-2.98746 -5.0889,-1.73951 -14.25534,2.8531 -9.46541,4.74241 -17.77137,11.07697 -16.73116,12.76007 0.36851,0.59626 3.09112,0.84928 6.49175,0.6033 4.80594,-0.34763 6.53278,-1.00082 9.62241,-3.63978 z M 304.11461,237.475 c -0.0195,-0.53625 -1.04418,-1.13072 -2.27715,-1.32104 -1.96935,-0.30399 -2.07744,-0.14805 -0.88953,1.2833 1.41019,1.69918 3.22777,1.72084 3.16668,0.0377 z M 320,238 c 0,-0.55 -0.45,-1 -1,-1 -0.55,0 -1,0.45 -1,1 0,0.55 0.45,1 1,1 0.55,0 1,-0.45 1,-1 z m 298.68311,-1.1875 c -0.31922,-0.79773 -0.55618,-0.56078 -0.60416,0.60417 -0.0434,1.05416 0.19293,1.64479 0.52522,1.3125 0.33229,-0.3323 0.36781,-1.1948 0.0789,-1.91667 z M 312,237 c 0,-0.55 -0.19844,-1 -0.44098,-1 -0.24254,0 -0.7191,0.45 -1.05902,1 -0.33992,0.55 -0.14148,1 0.44098,1 0.58246,0 1.05902,-0.45 1.05902,-1 z m 152.97139,-13.10343 c 1.58756,-3.35688 2.66111,-6.69068 2.38568,-7.40844 -0.75514,-1.96787 -5.98819,-3.79753 -8.82501,-3.08553 -3.5113,0.88128 -5.56423,4.50899 -6.23622,11.01994 C 451.72019,230 451.72019,230 456.90256,230 c 5.18237,0 5.18237,0 8.06883,-6.10343 z m 94.72459,440.79037 c -12.99988,-7.86964 -10.55643,-23.02473 5.00436,-31.03873 4.75609,-2.44944 6.87097,-2.09737 8.31294,1.38385 1.36179,3.28765 0.67249,5.05371 -1.22995,3.15127 -2.42414,-2.42414 -7.78678,-1.37988 -11.38333,2.21667 -4.98095,4.98095 -4.34863,10.91582 1.84742,17.3396 5.39568,5.59399 11.05972,5.32231 18.80503,-0.90199 2.17073,-1.74445 4.2347,-2.88379 4.58661,-2.53188 1.31715,1.31715 -4.77076,7.58101 -9.80744,10.09089 -6.43855,3.20846 -11.17439,3.29367 -16.13564,0.29032 z m 30.01301,-13.94493 c 0.39326,-2.05724 -2.67048,-6.73505 -11.73292,-17.91419 -0.83816,-1.03392 -2.83778,-2.23124 -4.44359,-2.6607 -2.91965,-0.78084 -2.91965,-0.78084 2.52393,-4.94365 5.44359,-4.16282 5.44359,-4.16282 5.77868,-1.49964 0.58239,4.62853 13.69444,21.27617 16.75758,21.27617 2.49729,0 1.50912,1.58786 -3.00615,4.83048 -5.23356,3.75846 -6.45806,3.94836 -5.87753,0.91153 z m 14.56642,-12.0369 C 602.42791,634.65029 587.93153,620 585.76681,620 c -1.4467,0 2.54653,-4.53369 13.97561,-15.86714 8.80057,-8.72692 17.91081,-18.28942 20.24498,-21.25 2.33418,-2.96057 5.06277,-5.69508 6.06354,-6.07669 1.00077,-0.3816 4.80816,-0.22855 8.46086,0.34013 3.65271,0.56867 6.83109,0.84414 7.06308,0.61215 0.23199,-0.23199 -0.70245,-3.1886 -2.07654,-6.57025 C 638.12425,567.80655 637,564.0933 637,562.93654 c 0,-3.93615 2.28099,-1.35875 4.96614,5.61146 1.47297,3.8236 3.18127,7.88466 3.79622,9.02458 1.66453,3.08546 8.63423,7.5962 10.58218,6.8487 2.59913,-0.99738 1.96592,0.88451 -2.08092,6.18451 -3.0966,4.05548 -3.79818,4.551 -4.09724,2.8938 -0.52007,-2.88184 -4.99267,-7.28955 -8.58133,-8.45683 -3.77529,-1.22799 -16.14329,-1.81733 -17.144,-0.81693 -0.39933,0.39921 -0.0994,1.48425 0.66645,2.4112 1.25791,1.52247 1.12642,1.6348 -1.36049,1.16227 -2.00623,-0.38121 -3.45516,0.12765 -5.34161,1.87595 -3.11268,2.88474 -3.20908,2.73229 7.95156,12.57378 5.49111,4.84207 8.42699,6.77923 9.75,6.43325 3.17158,-0.82939 2.14806,1.65102 -2.60696,6.31772 -4.00173,3.9274 -4.5,4.16943 -4.5,2.18586 0,-2.46367 -5.6873,-9.06332 -13.31071,-15.44601 -4.94685,-4.14173 -4.94685,-4.14173 -7.32136,-1.3812 -1.93339,2.2477 -2.17308,3.13692 -1.2902,4.78659 1.38632,2.59036 0.46108,3.54682 -1.69781,1.7551 -1.49157,-1.23789 -1.59339,-1.1483 -0.96068,0.8452 0.63986,2.01603 0.43794,2.17764 -2.10576,1.68533 -2.20253,-0.42629 -3.54811,0.1334 -6.19651,2.57744 -3.38304,3.12196 -3.38304,3.12196 -0.0538,6.55683 1.83106,1.88917 3.84618,3.43486 4.47805,3.43486 1.81988,0 4.45882,-3.44972 4.45882,-5.82874 0,-2.77608 1.12864,-2.75191 3.67692,0.0787 3.36207,3.73463 3.78356,4.95369 1.58399,4.58138 -2.47468,-0.41889 -7.26091,2.08784 -7.26091,3.8028 0,1.78783 5.90876,8.36582 7.5147,8.36582 2.03786,0 6.4853,-5.88168 6.4853,-8.57673 0,-3.09534 1.33259,-3.09081 3.36525,0.0114 1.57387,2.40202 1.49239,2.5295 -6.07241,9.5 -4.21723,3.88591 -7.96112,7.0653 -8.31975,7.0653 -0.35863,0 -1.12259,-1.0327 -1.69768,-2.29489 z M 154.50223,617.4246 c -8.06087,-4.20306 -12.63798,-13.49301 -10.52116,-21.35431 1.29272,-4.80077 7.60398,-10.71422 12.39409,-11.61285 7.01253,-1.31556 16.52549,4.50716 20.68534,12.66114 1.91566,3.75501 1.91566,3.75501 -0.70728,5.81822 -1.44262,1.13476 -3.01225,2.0632 -3.48808,2.0632 -1.18624,0 -1.09229,-1.74158 0.13486,-2.5 2.12297,-1.31207 0.95343,-5.74657 -2.4,-9.1 -2.90574,-2.90574 -4.08581,-3.4 -8.11765,-3.4 -4.133,0 -5.19074,0.47309 -8.53514,3.8175 -6.8103,6.8103 -6.60869,13.6698 0.58797,20.00455 5.99239,5.27472 5.97902,6.73727 -0.0329,3.60255 z M 130.58625,589.066 C 127.27043,586.88013 122,579.51373 122,577.06513 c 0,-0.89865 1.38116,-2.44978 3.06923,-3.44696 3.17336,-1.87454 5.19803,-1.48543 3.1141,0.5985 -1.7757,1.7757 -1.42442,7.26403 0.6271,9.79755 1.08397,1.33865 2.91974,2.23578 4.575,2.23578 4.56936,0 5.19043,-1.44838 3.64481,-8.50006 -1.87989,-8.57677 -1.64029,-10.82845 1.43359,-13.47249 4.84437,-4.16695 11.27938,-2.28608 15.85999,4.63568 3.3269,5.0273 3.35307,6.59725 0.14497,8.69928 -2.69312,1.7646 -4.63786,1.15666 -2.65212,-0.82908 1.65187,-1.65187 1.47465,-4.9224 -0.41273,-7.61702 -1.19617,-1.70776 -2.3863,-2.20198 -4.75,-1.9725 -3.97626,0.38602 -4.46923,2.83982 -2.19726,10.93706 1.20475,4.29367 1.35791,6.34706 0.58163,7.79755 -2.72516,5.092 -9.31659,6.52302 -14.45206,3.13758 z m -25.62527,-48.18423 c -2.14069,-6.48636 -4.36761,-8.60555 -10.4806,-9.97357 C 91.46617,530.23365 89,529.41376 89,529.08623 c 0,-0.32754 2.00797,-2.16843 4.46214,-4.09087 4.46215,-3.49536 4.46215,-3.49536 4.5,-10.24536 0.0208,-3.7125 0.32559,-6.75 0.67726,-6.75 0.35167,0 2.88193,1.37984 5.62279,3.06631 4.98338,3.06631 4.98338,3.06631 10.39653,0.86927 2.97724,-1.20837 5.67975,-1.93045 6.00558,-1.60462 0.32583,0.32584 0.0847,2.60893 -0.53594,5.07355 -1.63461,6.49165 -1.49033,7.18907 2.37164,11.46381 1.925,2.13074 3.5,4.38204 3.5,5.00288 0,0.68088 -1.89575,1.1288 -4.77749,1.1288 -5.77249,0 -8.34339,1.64376 -11.8024,7.5461 -1.43558,2.44965 -2.72037,4.4539 -2.85507,4.4539 -0.13471,0 -0.85653,-1.8532 -1.60406,-4.11823 z M 671.10974,539.6595 C 667.17378,533.93878 665.47596,533 659.06574,533 656.27958,533 654,532.72692 654,532.39316 c 0,-0.33376 1.77154,-2.8318 3.93676,-5.5512 3.93676,-4.94436 3.93676,-4.94436 2.51082,-9.64316 -2.48086,-8.17504 -2.31576,-8.39042 4.4109,-5.75426 5.85849,2.29592 5.85849,2.29592 11.25,-1.10781 5.39152,-3.40373 5.39152,-3.40373 5.6825,3.48968 0.29098,6.89341 0.29098,6.89341 4.75,10.09564 2.45246,1.76122 4.45902,3.56496 4.45902,4.00831 0,0.44335 -2.65684,1.55156 -5.90409,2.46269 -5.89288,1.65346 -5.90873,1.66822 -8.35253,7.77629 -2.44845,6.11968 -2.44845,6.11968 -5.63364,1.49016 z M 76.97732,487.41898 c -1.34527,-4.80481 -1.34527,-4.80481 7.57714,-13.05179 6.27839,-5.8031 8.48133,-8.41004 7.43397,-8.79726 C 90.7656,465.11784 71.41075,461 70.50864,461 c -0.59088,0 -2.56503,-9.27694 -2.07783,-9.76414 0.28647,-0.28647 1.2224,0.0614 2.07984,0.77298 1.26959,1.05366 2.61989,1.05804 7.27416,0.0236 12.30189,-2.73417 17.95333,-4.94001 18.66949,-7.28696 0.65407,-2.14351 0.74917,-2.10058 2.09416,0.94534 0.77494,1.75495 1.70813,5.06158 2.07375,7.34808 0.64445,4.03014 0.60071,4.11727 -1.43002,2.84905 -1.7203,-1.07435 -3.21347,-1.07716 -8.35229,-0.0158 -3.44162,0.71086 -7.62603,1.8637 -9.2987,2.56188 -3.0412,1.26945 -3.0412,1.26945 2.9588,2.50172 16.06307,3.299 19.36967,4.23941 18.92168,5.3814 -0.2552,0.65057 -4.46516,4.55785 -9.35545,8.68285 -4.8903,4.125 -8.4618,7.65632 -7.93668,7.84739 2.40494,0.87502 15.3688,-3.28208 17.53958,-5.62439 2.28724,-2.46796 2.28724,-2.46796 3.30905,0.21962 0.562,1.47817 1.02182,3.87328 1.02182,5.32248 0,2.04937 -0.26667,2.36823 -1.2,1.4349 -1.83994,-1.83994 -6.52673,-1.44678 -16.34323,1.37099 -5.56653,1.59784 -9.55811,3.3435 -10.54548,4.6119 -1.53683,1.97427 -1.63263,1.88402 -2.93397,-2.76391 z M 699,482.0278 c -5.12107,-5.43027 -7.44955,-7.14004 -10.97601,-8.05953 -3.27121,-0.85293 -4.94986,-0.87115 -6.23643,-0.0677 -3.37147,2.10551 -3.55956,1.06201 -1.22538,-6.79803 1.56218,-5.26043 1.56218,-5.26043 3.89137,-2.74719 1.28105,1.38228 3.98953,2.82472 6.01884,3.20542 4.26493,0.8001 14.48252,-1.63889 19.40407,-4.63186 4.06252,-2.47057 4.12354,-2.45755 4.12354,0.87993 0,4.39854 -1.98362,6.11277 -9.85447,8.51616 -7.31434,2.23345 -7.31434,2.23345 -1.72994,8.49201 3.07143,3.44221 5.58441,6.69155 5.58441,7.22076 0,2.36319 -2.98067,0.37277 -9,-6.01 z M 695,450 c -0.825,-0.53316 -2.4574,-0.97627 -3.62756,-0.98469 -3.38099,-0.0243 -4.49744,-2.39095 -4.49744,-9.53353 0,-8.16669 2.97599,-14.87643 8.125,-18.31883 2.91246,-1.94714 4.46751,-2.27225 9.26344,-1.93667 6.64867,0.46523 10.36778,2.7121 12.98501,7.8448 2.20553,4.32533 2.27678,13.03116 0.15755,19.25078 -1.36456,4.00475 -1.97632,4.67594 -4.25,4.66283 -1.4608,-0.008 -3.27444,-0.40706 -4.03032,-0.88585 -1.05224,-0.66653 -0.70757,-1.19023 1.47074,-2.23469 3.56164,-1.70774 5.36982,-5.19456 5.38884,-10.39164 0.0257,-7.01622 -5.30424,-11.47707 -13.70314,-11.46877 -7.39045,0.007 -14.3903,7.44477 -12.83583,13.63829 0.83279,3.31808 6.74807,3.39473 8.33322,0.10797 0.95694,-1.9842 1.09151,-1.7184 1.13916,2.25 0.0583,4.85605 -0.76697,9.00931 -1.7853,8.98469 C 696.78502,450.97627 695.825,450.53316 695,450 Z M 95.34931,438.94931 c -0.57788,-0.57788 -7.53038,-3.16538 -15.45,-5.75 C 69.86814,429.92557 65.5,428.04566 65.5,427.00229 c 0,-0.84365 5.13387,-4.59112 11.75584,-8.58117 6.46571,-3.8959 12.85534,-8.11639 14.19918,-9.37886 2.44334,-2.2954 2.44334,-2.2954 2.95028,0.0812 0.27882,1.30711 0.64803,4.25709 0.82047,6.5555 0.30648,4.08501 0.25133,4.16649 -2.45364,3.6255 C 88.84561,418.51912 87,420.47817 87,425.43132 c 0,4.6423 1.39976,7.04067 4.67578,8.01154 1.51889,0.45013 2.47746,0.10574 3.175,-1.1407 1.30088,-2.32454 1.77142,-1.70601 2.62288,3.44784 0.68956,4.17389 -0.0444,5.27925 -2.12435,3.19931 z M 84,427.5 c 0,-4.04329 -1.51897,-4.48794 -6.09571,-1.78439 -3.60956,2.13222 -3.63644,2.85032 -0.15429,4.12211 5.17083,1.88855 6.25,1.4849 6.25,-2.33772 z m 614.25623,-17.14466 c -6.24975,-3.081 -9.61073,-12.61141 -7.37525,-20.91332 3.4325,-12.74734 22.25985,-15.01298 29.36732,-3.53398 1.52843,2.4685 2.11909,5.08747 2.14254,9.5 0.0584,10.98283 -5.16129,16.60085 -15.39084,16.56545 -3.025,-0.0105 -6.9597,-0.73863 -8.74377,-1.61815 z m 17.50721,-8.02227 c 5.55229,-4.13367 5.11229,-11.79461 -0.85463,-14.88023 -3.32546,-1.71966 -13.12207,-1.92242 -16.22455,-0.3358 -7.43527,3.80243 -7.63771,13.18626 -0.35552,16.48016 4.48027,2.02653 13.93558,1.34096 17.4347,-1.26413 z M 65.99662,400.15046 C 60.979696,395.13354 60.649094,383.62814 65.48697,382.41392 68.02733,381.77632 70,382.49542 70,384.05902 70,384.57656 69.34083,385 68.53518,385 c -3.53797,0 -4.71409,7.62312 -1.60958,10.43267 3.26572,2.95544 5.34748,1.57695 8.12784,-5.38205 3.0725,-7.69023 6.31544,-10.56778 10.79969,-9.58288 6.35407,1.39559 10.49365,10.52593 8.42148,18.5746 -0.71218,2.76623 -1.44544,3.52257 -3.66687,3.78223 -1.52718,0.17852 -3.52617,0.0313 -4.44221,-0.32711 -1.38262,-0.54099 -1.20268,-0.89657 1.05933,-2.09334 4.92213,-2.60417 6.3805,-8.64132 2.85761,-11.82949 -3.64286,-3.29674 -6.31182,-1.7151 -9.15508,5.42537 -3.72073,9.34412 -9.39833,11.6829 -14.93077,6.15046 z M 89,374.34182 c -0.825,-0.27515 -2.175,-0.72787 -3,-1.00603 -1.02548,-0.34577 -0.40019,-1.03248 1.97663,-2.17078 4.12493,-1.97549 5.86706,-5.86382 4.44233,-9.91501 -0.75562,-2.14859 -1.60365,-2.75 -3.87769,-2.75 -2.48765,0 -3.39959,0.83691 -6.27621,5.7599 -5.42946,9.29186 -10.21933,10.87674 -15.85118,5.24489 C 64.40436,367.49527 64,366.09676 64,361.15624 c 0,-7.76194 2.12803,-10.81846 6.40102,-9.19387 3.05742,1.16243 2.96665,1.67134 -0.6167,3.45784 -3.44963,1.71982 -4.58973,6.03234 -2.27189,8.59353 3.11961,3.44713 5.64039,2.1428 9.32491,-4.82497 3.77516,-7.13921 6.48529,-8.95915 11.28954,-7.58131 5.08118,1.45726 7.37312,5.45507 7.37312,12.86088 0,4.81326 -0.45455,6.82396 -1.90499,8.42667 -1.99262,2.20183 -2.1668,2.25667 -4.59501,1.44681 z M 690.68077,373.25 c -0.2405,-0.4125 -0.75174,-4.35 -1.13609,-8.75 -0.38435,-4.4 -0.90954,-8.9 -1.16708,-10 -0.43177,-1.84416 0.0612,-2.00622 6.32707,-2.07981 12.52649,-0.14712 20.20574,-1.40765 22.30541,-3.66138 2.25953,-2.42532 2.55007,-1.91432 3.34568,5.8843 0.58076,5.69268 -0.0262,7.18985 -1.8845,4.64847 -1.10818,-1.51553 -2.35694,-1.57228 -12.94507,-0.58827 -6.44522,0.59899 -12.09932,1.47329 -12.56468,1.94288 -0.46536,0.4696 -0.58306,2.80178 -0.26156,5.18264 0.45066,3.33738 1.12454,4.53414 2.94229,5.22525 1.29677,0.49303 2.35776,1.35756 2.35776,1.92117 0,1.16874 -6.65242,1.41846 -7.31923,0.27475 z M 92.5,344.75617 c -1.65,-1.64264 -6.87111,-5.63848 -11.60247,-8.87963 -9.68461,-6.63433 -12.70263,-9.50679 -11.3239,-10.77777 0.5095,-0.46968 6.55137,-2.08181 13.42637,-3.58251 6.875,-1.50071 14.03159,-3.36169 15.90354,-4.13553 1.87195,-0.77384 3.5907,-1.21982 3.81945,-0.99107 C 103.4584,317.12506 100.77169,329 99.8699,329 99.39145,329 99,328.325 99,327.5 c 0,-1.84373 -3.94361,-2.00016 -6.30251,-0.25 -0.93725,0.69539 -1.96348,3.31186 -2.31295,5.89713 -0.57389,4.24548 -0.40116,4.79588 1.99864,6.36829 2.12057,1.38944 2.91496,1.48203 4.12183,0.48043 1.25552,-1.042 1.4928,-0.86072 1.48134,1.13171 -0.018,3.12692 -1.05626,6.90561 -1.85298,6.74383 C 95.78502,347.80069 94.15,346.39881 92.5,344.75617 Z m -4.9843,-12.82768 c 0.37104,-1.68932 0.42759,-3.31854 0.12566,-3.62047 -0.74802,-0.74801 -9.64466,0.64101 -9.62825,1.50325 0.0176,0.9227 6.17958,5.04811 7.65743,5.12658 0.6438,0.0342 1.47413,-1.32003 1.84516,-3.00936 z m 604.90801,9.09391 c -7.6295,-3.85475 -11.67316,-16.41294 -7.73506,-24.0224 4.02271,-7.77293 18.69666,-10.67903 24.92957,-4.93718 5.86884,5.40646 8.24876,16.96805 4.72185,22.93863 -2.1197,3.58837 -7.59459,6.64611 -13.34007,7.45047 -3.46386,0.48494 -5.43858,0.15578 -8.57629,-1.42952 z m 10.78496,-6.06357 C 708.16688,333.58178 713,328.66588 713,324.9998 c 0,-1.60321 -1.13069,-4.1901 -2.58889,-5.92307 C 708.1315,316.36756 707.20109,316 702.623,316 c -6.5081,0 -13.58062,3.35706 -15.47279,7.34435 -1.13725,2.39649 -1.13136,3.41824 0.0374,6.48913 2.17747,5.72111 7.61386,7.46029 16.02103,5.12535 z M 85.98983,305.75 c -5.7061,-3.88354 -7.48357,-7.16259 -7.35004,-13.55927 0.12004,-5.75068 2.86295,-13.70332 5.47358,-15.86976 1.05357,-0.87431 2.1842,-0.81533 4.70716,0.24554 C 92.44632,278.09112 92.27566,280 88.51356,280 85.35266,280 82,284.42032 82,288.58781 c 0,7.47322 4.44856,11.60002 13.18573,12.23201 5.49695,0.39761 5.94431,0.25014 9.24044,-3.04599 2.7149,-2.7149 3.61167,-4.57839 4.14766,-8.61883 0.37611,-2.83525 1.04553,-5.155 1.48761,-5.155 2.85126,0 1.38345,10.92606 -2.25971,16.82081 -2.99779,4.85052 -7.33248,7.171 -13.40385,7.17545 -3.64938,0.003 -6.04342,-0.63691 -8.40805,-2.24626 z m 591.53737,-1.70598 c -0.82703,-1.33818 1.26626,-5.8926 8.2841,-18.02379 3.33436,-5.76388 5.8842,-10.65807 5.66629,-10.87597 -0.88923,-0.88923 -16.8149,5.42299 -17.84543,7.07313 -1.56878,2.51203 -2.2778,2.23788 -3.53433,-1.36661 -1.54079,-4.41991 -1.60809,-4.33748 3.65287,-4.47419 6.2823,-0.16324 21.33536,-5.9897 21.99537,-8.51355 0.68608,-2.6236 2.13198,-2.31399 3.27868,0.70206 1.71725,4.5167 1.10403,6.48281 -5.64903,18.11213 -3.64335,6.27415 -6.45585,11.56752 -6.25,11.76304 0.20585,0.19552 4.08678,-0.99035 8.62428,-2.63526 6.56845,-2.38117 8.25,-3.39647 8.25,-4.98122 0,-3.16564 2.21282,-1.57196 3.67283,2.64519 1.4442,4.17147 1.1301,5.44228 -0.92383,3.73767 -0.95847,-0.79546 -4.83432,0.083 -14.77417,3.34848 -15.65992,5.14468 -13.71462,4.67492 -14.44763,3.48889 z m -564.7,-25.23565 C 112.399,275.78743 96.37709,267.64159 90.75,267.5839 88.6875,267.5628 87,267.16986 87,266.7108 c 0,-0.45906 1.2315,-3.39428 2.73666,-6.52273 2.22453,-4.62362 2.80048,-5.25542 3.07767,-3.37614 0.35897,2.43376 5.45387,6.17793 8.41535,6.18433 0.9978,0.002 2.53023,-1.58299 3.62169,-3.74626 3.56142,-7.0588 3.52941,-7.69799 -0.4812,-9.61052 -2.34468,-1.1181 -4.68422,-1.50978 -6.55881,-1.09805 -2.91402,0.64003 -2.91402,0.64003 -1.31135,-3.2007 0.88147,-2.1124 2.32387,-4.94316 3.20533,-6.29058 1.55092,-2.37076 1.62678,-2.38463 2.34997,-0.42967 0.93237,2.52045 3.25099,3.98654 13.90069,8.78962 7.02079,3.16642 8.77701,3.61322 10.34738,2.63251 2.96556,-1.85202 2.99002,-0.71696 0.1154,5.35435 -3.05668,6.4558 -3.98434,7.37234 -4.69834,4.64201 -0.56793,-2.17179 -6.29104,-6.02949 -8.95359,-6.03523 -1.56546,-0.003 -6.76685,8.32877 -6.76685,10.83987 0,0.50056 2.2838,1.89257 5.07511,3.09336 4.0268,1.73228 5.37443,1.93484 6.52417,0.98064 2.49342,-2.06936 2.62204,-0.30285 0.36069,4.95381 -2.72453,6.33333 -4.66965,8.20424 -5.13277,4.93695 z m 553.54382,-7.89335 C 664.7796,268.92041 661,261.2826 661,260.06128 c 0,-0.67576 0.79229,-0.65741 2.35484,0.0545 1.88034,0.85673 3.17644,0.65379 6.43215,-1.00715 2.24252,-1.14405 4.30887,-2.45476 4.59188,-2.91268 C 675.38442,254.56898 670.17025,245 668.27814,245 665.75446,245 659,249.75822 659,251.53605 c 0,2.93093 -2.02448,1.34915 -4.48315,-3.50281 -3.17024,-6.25615 -3.14745,-6.77941 0.27335,-6.27734 3.74718,0.54997 21.31488,-8.35573 22.69693,-11.5059 0.54292,-1.2375 1.2574,-2.25 1.58774,-2.25 0.79271,0 5.92513,10.51326 5.92513,12.13705 0,0.98229 -0.26667,0.99628 -1.2,0.063 -0.66,-0.66 -2.03235,-1.2 -3.04966,-1.2 -2.86359,0 -7.75034,2.87866 -7.75034,4.56552 0,2.32847 3.91265,9.46373 5.52975,10.08427 2.20621,0.8466 7.82322,-2.91452 8.48909,-5.68426 0.57808,-2.40456 0.65786,-2.36661 3.22608,1.53447 1.44834,2.2 2.96038,5.35 3.36009,7 0.65623,2.70896 0.56622,2.86776 -0.92786,1.63691 -1.40551,-1.15788 -2.29614,-1.11073 -5.91588,0.31315 -8.18869,3.22114 -18.64908,9.76655 -18.96135,11.86473 -0.2496,1.67715 -0.48933,1.77785 -1.4289,0.60023 z M 125.3337,238.81024 c -2.10854,-1.11506 -6.44609,-3.60122 -9.63901,-5.52481 -3.86438,-2.32812 -6.62266,-3.34119 -8.25,-3.03011 -3.19167,0.61013 -3.07667,-0.68842 0.57615,-6.50532 2.74904,-4.37769 5.62037,-6.58453 4.38772,-3.37231 C 111.31232,223.23445 126.62155,233 132.19626,233 135.30957,233 139,228.54777 139,224.7918 c 0,-4.69233 -14.77275,-15.56762 -19.52613,-14.3746 -1.36063,0.3415 -2.47387,0.36498 -2.47387,0.0522 0,-1.24229 2.95915,-6.1906 4.43406,-7.41467 1.33011,-1.10389 1.56594,-1.00623 1.56594,0.64852 0,2.28526 2.06843,4.24494 11.31033,10.71566 3.8517,2.69677 7.252,5.92228 7.827,7.42468 2.09811,5.48205 -3.65382,15.74641 -10.07914,17.98629 -2.3196,0.80862 -3.6483,0.60715 -6.72449,-1.01963 z m 21.29826,-26.6725 c -3.01567,-3.14769 -2.57936,-4.52653 0.92685,-2.92899 5.97567,2.7227 12.7125,-8.14042 7.19375,-11.5999 -1.39263,-0.87298 -3.18134,-0.35009 -8.80924,2.57521 -6.14252,3.19278 -7.44856,3.53577 -10.03294,2.63485 C 132.7944,201.73268 130,197.56314 130,194 c 0,-3.00687 2.30882,-6.9999 6.22022,-10.75769 3.39086,-3.25769 3.39086,-3.25769 6.33532,-0.16658 2.94446,3.0911 2.94446,3.0911 -0.56846,2.44087 -2.92229,-0.5409 -3.90189,-0.23618 -5.82647,1.81244 -1.56388,1.66468 -2.20777,3.38751 -1.98708,5.31681 0.46162,4.03567 3.65936,4.16868 10.20366,0.42442 2.95144,-1.68865 6.69554,-3.07027 8.32022,-3.07027 3.36982,0 6.81726,3.14108 7.80122,7.10797 0.80549,3.24738 -1.65973,9.39829 -5.30168,13.22809 -4.44098,4.67004 -5.58614,4.91093 -8.56499,1.80168 z m 476.95433,-10.03429 c -3.62246,-4.3431 -6.57468,-8.2806 -6.56049,-8.75 0.0142,-0.4694 1.70169,-1.62447 3.75,-2.56683 5.04143,-2.31939 18.01364,-14.3004 18.40726,-17.00077 0.25991,-1.78308 1.62259,-0.56808 7.57287,6.75213 3.99076,4.90956 7.11609,9.34595 6.94519,9.85866 -0.1709,0.51271 -1.37364,1.63794 -2.67275,2.50052 -2.3174,1.53869 -2.34908,1.51679 -1.67734,-1.15963 0.55623,-2.2162 0.0706,-3.39803 -2.58882,-6.29995 -3.2735,-3.57199 -3.2735,-3.57199 -7.26785,-0.10393 -3.99436,3.46807 -3.99436,3.46807 -1.57005,6.06721 1.33338,1.42953 3.24588,2.59914 4.25,2.59914 2.66626,0 2.23488,1.57245 -1.07868,3.93191 -3.7413,2.66403 -5.52516,2.73919 -4.15283,0.17496 0.77752,-1.45281 0.53624,-2.49944 -1.03739,-4.5 C 634.77759,192.17309 633.5185,191 633.10742,191 c -0.41108,0 -2.65952,1.63668 -4.99652,3.63707 -4.2491,3.63707 -4.2491,3.63707 -0.53064,7.44513 3.13136,3.2068 4.20803,3.7267 6.81911,3.29279 3.10063,-0.51527 3.10063,-0.51527 0.10063,2.0499 -1.65,1.41085 -3.29867,2.56741 -3.66371,2.57014 -0.36504,0.003 -3.62754,-3.54848 -7.25,-7.89158 z M 165.66817,187.95504 c -4.01351,-5.67236 -16.29746,-16.03452 -18.16071,-15.31953 -2.96016,1.13592 -1.39826,-1.27741 6.10216,-9.42859 7.96528,-8.65636 8.84503,-8.96296 11.4974,-4.00696 0.87316,1.63153 0.69745,1.78907 -1.40645,1.26102 -1.83503,-0.46056 -3.14964,0.14194 -5.55242,2.54472 -1.73148,1.73148 -3.14815,3.47526 -3.14815,3.87506 0,0.3998 1.60757,2.27768 3.57239,4.17307 3.57238,3.44617 3.57238,3.44617 6.07825,0.54943 1.47078,-1.70019 2.30569,-3.66227 2.02124,-4.75 -0.72612,-2.77667 0.55174,-2.258 4.38195,1.7786 3.37875,3.5608 3.39541,3.61989 0.85171,3.01998 -1.96715,-0.46392 -3.16119,-0.009 -4.93836,1.88309 -2.34389,2.49496 -2.34389,2.49496 1.54741,6.48002 2.14022,2.19178 4.21105,3.98505 4.60185,3.98505 0.3908,0 2.08117,-1.86377 3.75639,-4.14171 2.38933,-3.24899 2.83148,-4.54227 2.05133,-6 -1.58114,-2.95438 1.52806,-2.34326 3.51626,0.69112 1.66604,2.5427 1.65139,2.56906 -5.55399,10 -3.97344,4.09783 -7.48588,7.44098 -7.80543,7.42924 -0.31955,-0.0117 -1.85532,-1.82237 -3.41283,-4.02361 z m 437.80949,-8.0824 c -4.76335,-4.3907 -5.83728,-7.04095 -2.49942,-6.16808 1.48618,0.38865 4.14742,-1.61796 10.69907,-8.06727 8.72083,-8.58459 8.72083,-8.58459 6.29829,-11.16326 -1.73707,-1.84903 -3.06669,-2.417 -4.69907,-2.0073 -2.58277,0.64824 -2.88022,-0.25888 -0.95033,-2.89815 2.04872,-2.8018 4.35204,-1.43606 14.10784,8.36515 7.79074,7.827 8.73999,9.15165 7.56917,10.56241 -0.7363,0.88718 -2.15418,2.04947 -3.15085,2.58287 -1.59261,0.85234 -1.7448,0.6332 -1.25636,-1.80899 0.41904,-2.09521 -0.0329,-3.33181 -1.83696,-5.02666 -2.39272,-2.24785 -2.39272,-2.24785 -11.15762,6.70916 -6.98102,7.13403 -8.63279,9.37327 -8.11578,11.00225 0.93325,2.94039 0.0362,2.56744 -5.00798,-2.08213 z M 191.71151,166.99518 c 0.5498,-2.10245 -3.86559,-8.43522 -11.75437,-16.85871 -4.08655,-4.36353 -4.08655,-4.36353 -6.55597,-2.04362 -1.94273,1.8251 -2.33445,2.93446 -1.83657,5.20127 0.6319,2.87704 0.62908,2.87889 -1.88191,1.23363 -1.38311,-0.90625 -2.73219,-2.21435 -2.99794,-2.90689 -0.27164,-0.7079 4.14032,-5.27339 10.07764,-10.42833 11.04774,-9.59193 11.7537,-9.83375 14.38026,-4.92598 0.93832,1.75325 0.76428,1.87192 -1.89026,1.28888 -2.10468,-0.46226 -3.58968,-0.10289 -5.30099,1.28284 -2.37726,1.92499 -2.37726,1.92499 1.777,7.29336 6.3989,8.26902 12.87618,14.23409 14.69746,13.5352 2.9221,-1.12132 1.60104,1.13952 -3.06665,5.24818 -5.18835,4.56697 -6.41628,5.01924 -5.6477,2.08017 z M 570.0898,150.97675 c -4.86085,-3.84229 -6.69758,-6.53094 -3.66712,-5.36805 1.80806,0.69382 4.14716,-1.66863 11.58691,-11.70263 4.96194,-6.69216 5.80268,-8.38833 4.94874,-9.98392 -0.6185,-1.15568 -0.65044,-1.92215 -0.0801,-1.92215 1.19027,0 16.63272,11.39966 17.63139,13.01555 0.43208,0.69912 -0.39078,2.28707 -1.98904,3.83844 -2.70214,2.62286 -2.71987,2.6255 -2.02611,0.30216 0.5334,-1.78628 0.0376,-3.03519 -2.08438,-5.25 C 592.87874,132.30777 591.06777,131 590.38571,131 c -0.68206,0 -2.63685,1.6875 -4.344,3.75 -3.10389,3.75 -3.10389,3.75 -0.8667,5.57718 1.27595,1.04211 3.22278,1.63877 4.53109,1.38867 2.88256,-0.55104 2.96413,1.16238 0.22132,4.64929 C 587.37505,149.60995 586,149.72719 586,146.7 c 0,-2.70446 -1.7255,-4.7 -4.064,-4.7 -2.69557,0 -7.15929,7.26215 -6.37774,10.37611 0.36221,1.44314 0.42518,2.62389 0.13995,2.62389 -0.28524,0 -2.80902,-1.81046 -5.60841,-4.02325 z m -354.47865,-3.56359 c 0.52904,-2.10785 -0.60065,-4.41699 -6.10108,-12.47089 -5.60594,-8.20841 -7.04059,-9.72871 -8.46244,-8.96776 -2.82849,1.51376 -4.31514,3.89452 -3.75927,6.02016 0.28842,1.10293 0.19497,2.00533 -0.20767,2.00533 -0.99599,0 -5.52808,-4.89008 -5.0013,-5.39635 C 193.70622,127.04015 214.42007,113 215.09991,113 c 1.13435,0 4.32096,4.91246 3.63293,5.6005 -0.29595,0.29594 -1.40542,-0.004 -2.46551,-0.66562 -1.56642,-0.97825 -2.42751,-0.87603 -4.59738,0.54572 -1.46847,0.96218 -2.65921,2.26017 -2.64608,2.88441 0.0131,0.62424 2.99966,5.29749 6.63672,10.38499 5.29906,7.41229 7.10668,9.25 9.09857,9.25 2.155,0 2.31078,0.21081 1.1708,1.58439 -1.41507,1.70506 -9.40779,7.41561 -10.37919,7.41561 -0.32388,0 -0.29671,-1.16408 0.0604,-2.58684 z m 334.84909,-9.42807 c -4.45216,-1.36698 -11.14711,-7.50628 -12.43232,-11.40049 -1.3254,-4.01599 -0.63055,-7.61171 2.54939,-13.19274 3.19974,-5.61577 6.80704,-7.79547 12.92269,-7.80851 6.20402,-0.0132 12.93432,3.46195 16.30037,8.41665 4.50195,6.62672 1.45565,17.51002 -6.32886,22.61062 -2.99594,1.96302 -9.02135,2.59953 -13.01127,1.37447 z m 7.25464,-4.95277 C 561.46561,130.74539 566,122.4944 566,117.95632 566,113.78438 561.27437,109 557.15365,109 c -6.09803,0 -13.08351,9.12895 -13.13169,17.16111 -0.0172,2.87544 0.6383,4.21667 3.05477,6.25 3.67858,3.09532 6.3268,3.24996 10.63815,0.62121 z m -323.72816,-2.06438 c -1.51954,-3.6685 -0.66509,-4.89183 1.83589,-2.62848 5.34157,4.83406 16.03616,-3.08069 10.98625,-8.1306 -0.83531,-0.83531 -3.62012,-1.00444 -9.32213,-0.56615 -8.01387,0.616 -8.16236,0.58512 -10.30886,-2.14371 -3.0465,-3.87301 -2.77354,-7.75098 0.83486,-11.86072 3.60034,-4.10056 10.55335,-7.24329 12.48266,-5.642107 1.04055,0.863577 2.76963,6.003827 2.01958,6.003827 -0.11423,0 -1.58219,-0.68569 -3.26214,-1.52376 -3.78193,-1.88667 -7.98924,-0.37465 -8.88465,3.19296 -1.24256,4.95074 -0.044,5.648 8.43684,4.90821 4.27342,-0.37278 8.55716,-0.37566 9.51941,-0.006 2.71537,1.04199 4.94065,6.20248 4.25367,9.8644 -1.03306,5.50665 -8.90205,11.5646 -15.02188,11.5646 -1.63327,0 -2.68288,-0.89158 -3.5695,-3.03206 z m 273.99803,-15.25307 c -4.13339,-1.76818 -8.02118,-3.54821 -8.63954,-3.95562 -0.77412,-0.51004 -0.10217,-2.69023 2.15745,-7 5.3965,-10.292752 8.05859,-18.630894 6.66214,-20.866977 C 507.51484,82.851523 507.3986,82 507.90649,82 c 1.06658,0 20.12852,7.701677 20.85161,8.424762 C 529.75076,91.417428 527.90486,96 526.51233,96 c -0.85963,0 -1.22168,-0.593842 -0.88963,-1.459164 0.62739,-1.634955 -4.94783,-5.530921 -7.92373,-5.537098 C 515.94169,89.000091 513,94.237639 513,97.370056 c 0,2.058104 5.88888,3.967054 7.6722,2.487029 2.15983,-1.792498 2.48743,-0.483375 0.85608,3.420995 C 519.74817,107.53848 518,108.92909 518,106.0847 518,104.35593 513.71928,101 511.51412,101 c -1.02034,0 -4.61485,9.29511 -4.10665,10.61946 0.83365,2.17246 7.93857,3.8009 10.53071,2.41363 2.89273,-1.54815 3.41972,-0.91271 1.93875,2.33768 -1.52063,3.33742 -2.71061,3.27178 -11.89218,-0.6559 z m -236.96944,1.52054 c 0.008,-0.40448 0.42349,-1.38045 0.92237,-2.16882 1.76279,-2.7857 -7.49654,-23.597926 -11.09011,-24.927272 -1.75875,-0.650607 -1.16873,-1.170836 3.91588,-3.452673 C 268.0561,85.20899 271.02007,84 271.35005,84 c 0.32997,0 0.33127,1.343422 0.003,2.985382 C 270.42987,91.600643 278.64044,111 281.51685,111 c 1.57751,0 2.02166,1.54915 0.68159,2.37736 -2.29966,1.42127 -11.1963,4.4905 -11.18313,3.85805 z M 287,110.55382 c 0,-0.31953 0.5344,-1.43666 1.18755,-2.48252 0.93878,-1.50323 0.83912,-3.15476 -0.47575,-7.88409 C 284.84971,89.892847 281.92864,83 280.42815,83 c -2.35647,0 -1.61244,-1.979436 1.13695,-3.024751 4.3703,-1.661586 6.10226,-1.144896 14.65337,4.3715 C 305.36079,90.244534 311,93.351514 311,92.490774 c 0,-0.308323 -1.2055,-4.20806 -2.67889,-8.666082 -1.83937,-5.565336 -3.24961,-8.25474 -4.5,-8.581725 -2.98588,-0.780823 -2.08715,-1.932162 2.39662,-3.070264 4.67799,-1.187402 5.63348,-0.903271 3.91711,1.164826 -1.13232,1.364365 -0.30938,4.959399 5.30214,23.162471 0.84776,2.75 1.54624,5.38628 1.5522,5.85841 0.0216,1.71608 -5.39521,-0.56985 -14.34347,-6.053012 -17.20097,-10.540109 -15.9732,-9.919956 -15.29556,-7.725854 5.24672,16.988076 5.08961,16.643716 8.14985,17.863566 1.83649,0.73206 1.75474,0.89993 -1,2.05343 -4.50484,1.88633 -7.5,2.70791 -7.5,2.05728 z m 191.79918,-5.13939 c -5.53558,-1.70309 -6.60145,-2.9147 -3.8565,-4.38375 2.72488,-1.458317 9.68476,-23.014533 7.81416,-24.202121 -1.87968,-1.193357 -6.19509,-0.990312 -7.54017,0.354774 -1.67109,1.671092 -2.57121,0.365392 -1.81771,-2.636763 0.82266,-3.277745 2.02259,-3.235303 14.65827,0.51847 13.90948,4.132192 14.08137,4.238913 12.79077,7.941149 -1.23455,3.541424 -2.58172,3.881253 -3.02845,0.763935 -0.20018,-1.396917 -1.38313,-2.602438 -3.1668,-3.227244 -3.82386,-1.339464 -4.7374,0.05201 -8.21937,12.519465 -2.1387,7.657815 -2.51386,10.257175 -1.61073,11.160305 2.99254,2.99254 1.06752,3.37341 -6.02347,1.19178 z M 324.66667,98.333333 C 323.81644,97.483107 323.78874,91 324.63533,91 c 0.34943,0 1.67794,1.125 2.95225,2.5 2.54718,2.748457 4.97624,3.111492 8.88934,1.328561 2.96966,-1.353064 4.29864,-5.189144 2.53426,-7.315085 -0.66668,-0.803303 -2.85443,-1.735353 -4.86166,-2.071221 C 324.51375,83.829911 321,81.262243 321,75.833257 c 0,-4.145166 3.81344,-7.818441 9.70274,-9.346104 6.31227,-1.637383 9.12732,-1.012447 9.93498,2.205555 0.84557,3.369025 -1.09673,5.186661 -2.58026,2.414651 C 337.21708,69.537094 335.97011,69 333.16482,69 328.86265,69 327,70.409438 327,73.664816 c 0,2.612501 1.87562,3.798937 7.5,4.74418 6.47769,1.088652 9.25279,2.579963 10.52749,5.657379 3.18443,7.687878 -4.61008,14.910149 -16.11082,14.928048 -1.97084,0.0031 -3.88334,-0.294423 -4.25,-0.66109 z m 117.35359,-2.084887 c -6.09279,-3.061415 -6.71349,-5.412655 -4.71264,-17.851481 1.17537,-7.307002 1.40364,-11.085704 0.71149,-11.777853 -2.78648,-2.786477 0.1761,-3.354161 7.66428,-1.468616 4.47321,1.126367 4.52442,1.184147 2.44185,2.755037 -2.26389,1.70765 -5.07513,12.323158 -5.10788,19.287763 C 442.99556,91.830773 445.76162,94 451.69683,94 c 5.22475,0 6.31185,-1.713474 8.77455,-13.830384 1.62361,-7.988493 1.6179,-8.415239 -0.13914,-10.397947 C 458.50375,67.708342 458.50922,67.705538 463,68.403238 467.48617,69.100223 470.9814,71 467.77755,71 c -1.76019,0 -2.5762,2.132 -5.35639,13.99458 -2.3107,9.859361 -5.2373,13.006074 -12.09424,13.003866 -2.6548,-8.55e-4 -6.3928,-0.788355 -8.30666,-1.75 z m -82.61807,-3.751773 c 1.73375,-1.312237 1.84323,-2.339207 1.23647,-11.597996 -0.93734,-14.303136 -1.19892,-15.074193 -4.98788,-14.702934 -2.11214,0.206956 -3.4917,1.083872 -4.31383,2.742088 -1.20866,2.43783 -1.20866,2.43783 -2.41983,-0.220387 -1.9273,-4.229956 -0.12592,-5.349469 9.84179,-6.116434 4.8076,-0.369921 10.87859,-0.939453 13.49109,-1.265627 4.75,-0.593044 4.75,-0.593044 4.75,3.035786 0,3.68249 -1.3117,4.864891 -2.36163,2.128831 -0.38139,-0.993908 -1.95106,-1.5 -4.6523,-1.5 -4.03509,0 -4.0716,0.03317 -3.57747,3.25 0.27457,1.7875 0.7742,6.625 1.11029,10.75 0.78893,9.683211 1.38541,12 3.08952,12 0.76537,0 1.39159,0.391121 1.39159,0.869158 0,1.001579 -5.88373,2.118435 -11,2.088033 -3.26153,-0.01938 -3.3704,-0.118893 -1.59781,-1.460518 z M 413.5,93.296906 c -6.15175,-0.56425 -7.15109,-1.100334 -4.99295,-2.678403 2.05153,-1.500116 3.3063,-8.398198 3.41995,-18.801115 C 411.9908,65.978052 411.74762,65.054673 410,64.5 c -2.73025,-0.866547 -6,0.305507 -6,2.150721 0,2.953663 -2.50498,0.644339 -2.82264,-2.60217 -0.32264,-3.297425 -0.32264,-3.297425 11.5,-2.626627 C 429.29597,62.364839 430,62.551731 430,66.020438 c 0,3.457272 -1.92145,4.99594 -2.669,2.137297 -0.52759,-2.017485 -5.79052,-4.03155 -7.1036,-2.718467 -0.89748,0.897474 -2.04393,10.903502 -2.14302,18.703743 -0.0655,5.15613 0.26555,6.777291 1.479,7.242937 1.73575,0.666071 1.00634,2.711126 -0.8724,2.445949 C 418.03594,93.73944 415.7,93.498694 413.5,93.296906 Z m -29.75,-2.97133 c 2.11487,-1.475256 2.25,-2.269544 2.25,-13.225042 0,-8.93069 -0.36393,-12.1751 -1.5567,-13.878028 C 382.88659,61 382.88659,61 389.59828,61 c 6.43884,0 6.64441,0.07435 5.05671,1.828741 -2.33279,2.577705 -2.46775,25.922144 -0.15499,26.809633 3.51243,1.347846 0.99711,2.357988 -5.75,2.309174 -6.8828,-0.0498 -7.13604,-0.131945 -5,-1.621972 z"
     id="path3447"
     inkscape:connector-curvature="0" />
</svg>
